<?xml version="1.0" encoding="utf-8"?>
<!-- Generator: Adobe Illustrator 24.0.1, SVG Export Plug-In . SVG Version: 6.00 Build 0)  -->
<svg version="1.1" id="Logo" xmlns="http://www.w3.org/2000/svg" xmlns:xlink="http://www.w3.org/1999/xlink" x="0px" y="0px"
	 viewBox="0 0 1024 1024" style="enable-background:new 0 0 1024 1024;" xml:space="preserve">
<style type="text/css">
	.st0{fill:#3F51B5;}
	.st1{fill:#401D96;}
	.st2{fill:#FFFFFF;}
	.st3{fill:none;stroke:#FFFFFF;stroke-width:19.4094;stroke-miterlimit:10;}
</style>
<path class="st0" d="M1016.36,1048.83H7.97c-7.49,0-13.57-6.07-13.57-13.57V-11.51c0-7.49,6.07-13.57,13.57-13.57h1008.39
	c7.49,0,13.57,6.07,13.57,13.57v1046.77C1029.93,1042.76,1023.85,1048.83,1016.36,1048.83z"/>
<g>
	<g>
		<g>
			<path class="st1" d="M685.61,513.9c18.57,42.17,35.73,84.91,53.56,128.41c-17.91-3.49-32.11,5.82-47.37,10.84
				c-2.03,0.67-4.08,1.3-6.12,1.95c-2.87,1.14-3.33-1.06-3.84-2.91c-0.53-1.9-0.43-3.89-0.43-5.85
				c-0.02-40.96-0.07-81.91,0.09-122.87C681.52,519.98,679.91,515.21,685.61,513.9z"/>
			<path class="st1" d="M683.3,677.58c13.5-5.17,26.83-10.86,40.56-15.36c12.39-4.06,25.6,3.09,30.04,15.02
				c4.52,12.18-0.64,25.98-12.74,31.05c-18.19,7.63-36.64,14.69-55.36,20.98c-3.94,1.62-4.92-0.93-5.3-3.94
				c-0.51-4.09-0.23-8.22-0.24-12.33c-0.02-9.21-0.07-18.42,0.03-27.63C680.33,682.45,680.26,679.39,683.3,677.58z"/>
			<path class="st1" d="M619.73,744.34c-5.5,0-10.99,0-16.49,0c-2.17-2.21-1.89-5.06-1.89-7.77c-0.05-45.29-0.05-90.58,0-135.87
				c0-2.71-0.27-5.56,1.89-7.77c5.5,0,10.99,0,16.49,0c2.16,2.22,1.89,5.07,1.89,7.77c0.05,45.29,0.05,90.58,0,135.87
				C621.62,739.27,621.89,742.12,619.73,744.34z"/>
			<path class="st1" d="M685.61,513.9c-2.44,1.16-2.29,3.37-2.29,5.55c0.01,43.7,0,87.4,0.02,131.09c0,1.87-0.56,4.13,2.35,4.55
				c-6.3,2.57-12.61,5.15-19.83,8.09c0.5-7.18,0.89-13.48,1.38-19.78c1.48-19.33,2.97-38.65,4.54-57.97
				c0.34-4.18-0.55-7.76-3.75-10.62c-1.79-2.33-1.88-5.06-1.88-7.81c-0.02-21.87-0.09-43.74,0.08-65.61
				c0.02-3.21-1.14-7.4,3.82-8.62C679.66,496.57,682.7,505.19,685.61,513.9z"/>
			<path class="st1" d="M478.4,744.34c-5.1,0-10.21,0-15.31,0c-2.17-2.21-1.89-5.06-1.89-7.77c-0.05-45.29-0.05-90.58,0-135.87
				c0-2.71-0.27-5.56,1.89-7.77c5.1,0,10.21,0,15.31,0c2.16,2.22,1.89,5.07,1.89,7.77c0.05,45.29,0.05,90.58,0,135.87
				C480.28,739.27,480.56,742.12,478.4,744.34z"/>
			<path class="st1" d="M506.66,744.34c-5.1,0-10.21,0-15.31,0c-2.17-2.21-1.89-5.06-1.89-7.77c-0.05-45.29-0.05-90.58,0-135.87
				c0-2.71-0.27-5.56,1.89-7.77c5.1,0,10.21,0,15.31,0c2.16,2.22,1.89,5.07,1.89,7.77c0.05,45.29,0.05,90.58,0,135.87
				C508.55,739.28,508.83,742.13,506.66,744.34z"/>
			<path class="st1" d="M547.89,592.93c5.1,0,10.21,0,15.31,0c2.16,2.22,1.89,5.07,1.89,7.77c0.05,45.29,0.05,90.58,0,135.87
				c0,2.71,0.28,5.56-1.89,7.77c-5.1,0-10.21,0-15.31,0c-2.17-2.21-1.89-5.06-1.89-7.77c-0.05-45.29-0.05-90.58,0-135.87
				C546,597.99,545.72,595.14,547.89,592.93z"/>
			<path class="st1" d="M563.2,744.34c0-50.47,0-100.94,0-151.41c4.71,0,9.42,0,14.13,0c2.16,2.22,1.89,5.07,1.89,7.77
				c0.05,45.29,0.05,90.58,0,135.87c0,2.71,0.28,5.56-1.89,7.77C572.62,744.34,567.91,744.34,563.2,744.34z"/>
			<path class="st1" d="M434.82,592.93c4.71,0,9.42,0,14.13,0c2.16,2.22,1.89,5.07,1.89,7.77c0.05,45.29,0.05,90.58,0,135.87
				c0,2.71,0.28,5.56-1.89,7.77c-4.71,0-9.42,0-14.13,0c-2.17-2.21-1.89-5.06-1.89-7.77c-0.05-45.29-0.05-90.58,0-135.87
				C432.93,597.99,432.66,595.14,434.82,592.93z"/>
			<ellipse class="st1" cx="456.02" cy="668.63" rx="10" ry="107.07"/>
			<path class="st1" d="M547.89,592.93c0,50.47,0,100.94,0,151.41c-4.71,0-9.42,0-14.13,0c-2.17-2.21-1.89-5.06-1.89-7.77
				c-0.05-45.29-0.05-90.58,0-135.87c0-2.71-0.27-5.56,1.89-7.77C538.47,592.93,543.18,592.93,547.89,592.93z"/>
			<path class="st1" d="M533.75,592.93c0,50.47,0,100.94,0,151.41c-4.71,0-9.42,0-14.13,0c-2.17-2.21-1.89-5.06-1.89-7.77
				c-0.05-45.29-0.05-90.58,0-135.87c0-2.71-0.27-5.56,1.89-7.77C524.33,592.93,529.04,592.93,533.75,592.93z"/>
			<path class="st1" d="M406.56,592.93c4.71,0,9.42,0,14.13,0c2.16,2.22,1.88,5.07,1.89,7.77c0.05,45.29,0.05,90.58,0,135.87
				c0,2.71,0.28,5.56-1.89,7.77c-4.71,0-9.42,0-14.13,0c-1.95-4.01-1.64-8.4-1.69-12.61c-0.46-43.48-0.18-86.97-0.21-130.45
				C404.66,598.39,404.26,595.33,406.56,592.93z"/>
			<ellipse class="st1" cx="427.76" cy="668.63" rx="9.99" ry="107.07"/>
			<path class="st1" d="M619.73,744.34c0-50.47,0-100.94,0-151.41c4.71,0,9.42,0,14.13,0c2.16,2.22,1.89,5.07,1.89,7.77
				c0.05,45.29,0.05,90.58,0,135.87c0,2.71,0.28,5.56-1.89,7.77C629.15,744.34,624.44,744.34,619.73,744.34z"/>
			<path class="st1" d="M596.11,493.76c2.71-4.66,4.38-11.32,8.42-13.39c3.77-1.93,10.05,0.98,15.21,1.82
				c0.93,0.15,1.81,0.6,2.71,0.92c-1.45,9.12-0.75,18.31-0.8,27.46c-0.1,17.76-0.01,35.51-0.05,53.27
				c-0.01,3.09,0.37,6.31-1.87,8.95c-7.46,0-14.92,0-22.38,0c-1.52-1.73-1.82-3.84-1.84-6.01c-0.12-22.6-0.07-45.2-0.01-67.8
				C595.5,497.23,596.02,495.52,596.11,493.76z"/>
			<ellipse class="st1" cx="484.88" cy="668.63" rx="9.16" ry="107.06"/>
			<path class="st1" d="M519.62,592.93c0,50.47,0,100.94,0,151.41c-4.32,0-8.64,0-12.96,0c0-50.47,0-100.94,0-151.41
				C510.98,592.93,515.3,592.93,519.62,592.93z"/>
			<path class="st1" d="M577.33,744.34c0-50.47,0-100.94,0-151.41c4.32,0,8.64,0,12.96,0c2.16,2.22,1.89,5.07,1.89,7.77
				c0.05,45.29,0.05,90.58,0,135.87c0,2.71,0.28,5.56-1.89,7.77C585.97,744.34,581.65,744.34,577.33,744.34z"/>
			<path class="st1" d="M590.29,744.34c0-50.47,0-100.94,0-151.41c4.32,0,8.64,0,12.96,0c0,50.47,0,100.94,0,151.41
				C598.92,744.34,594.6,744.34,590.29,744.34z"/>
			<path class="st1" d="M461.94,320.11c7.06-3.4,14.49-5.14,22.35-4.95c2.12,2.23,1.87,5.07,1.87,7.78
				c0.04,27.63,0.07,55.26-0.02,82.89c-0.01,3.68,0.22,7.55-3.02,10.34c-14.05-12.42-21.45-27.87-21.32-46.75
				C461.13,352.98,460.85,336.55,461.94,320.11z"/>
			<path class="st1" d="M633.86,744.34c0-50.47,0-100.94,0-151.41c3.52-0.07,7.04-0.18,10.57-0.19c7.57-0.03,7.41-0.02,6.78,7.77
				c-2.73,33.72-5.33,67.46-8.03,101.18c-1,12.48-2.4,24.92-3.07,37.42C639.86,743.88,638.33,745.43,633.86,744.34z"/>
			<path class="st1" d="M619.73,572.79c0-27.85-0.02-55.7,0.04-83.55c0.01-2.3-1.18-5.4,2.68-6.13c6.77,0.57,13.45,1.65,19.97,3.57
				c-1.68,3.42-2.01,7.06-2,10.83c0.05,22.1,0.05,44.2,0,66.31c-0.01,3.1,0.38,6.32-1.86,8.97
				C632.29,572.79,626.01,572.79,619.73,572.79z"/>
			<path class="st1" d="M483.12,416.18c1.49-5.56,1.17-11.24,1.17-16.9c0-28.04,0-56.08,0-84.12c6.04-0.37,12.08-0.67,17.72,2.18
				c-1.24,32.47-0.21,64.95-0.57,97.42c-0.05,4.07,0.46,8.26-1.84,12.01C493.24,424.59,487.82,420.94,483.12,416.18z"/>
			<path class="st1" d="M499.6,426.77c0-16.77,0-33.55,0-50.32c0-17.81-0.04-35.61,0.05-53.42c0.01-2.08-1.23-4.98,2.37-5.69
				c4.74,0.89,9.09,2.59,12.63,6c0.61,2.86,0.98,5.74,0.98,8.69c-0.04,29.69,0,59.38-0.05,89.08c-0.01,3.49,0.27,7.08-1.87,10.2
				C508.69,430.74,503.97,429.31,499.6,426.77z"/>
			<path class="st1" d="M338.21,562.06c4.09-11.32,8.69-22.43,13.98-33.25c2.92,1.83,3.14,4.86,3.15,7.78
				c0.21,38.13,0.08,76.27,0.09,114.4c0,0.99-0.24,1.94-0.73,2.81c-5.25-1.54-10.39-3.38-15.29-5.84c-1.44-1.54-1.81-3.46-1.82-5.45
				c-0.1-25.87-0.19-51.74,0.02-77.61C337.63,563.92,337.64,562.92,338.21,562.06z"/>
			<path class="st1" d="M354.71,653.8c-1.51-2.29-1.15-4.88-1.15-7.4c-0.01-35.75-0.03-71.49,0.03-107.24
				c0.01-3.55-0.21-7-1.39-10.36c2.92-8.79,6.51-17.29,10.78-25.51c3.87,2.23,3.03,6.09,3.04,9.47c0.1,26.04,0.05,52.08,0.05,78.12
				c0,19.19,0.04,38.37-0.03,57.56c-0.01,3.06,0.58,6.34-1.88,8.92C361.01,656.18,357.86,654.99,354.71,653.8z"/>
			<path class="st1" d="M513.7,431.31c0.01-35.09,0.02-70.18,0.07-105.28c0-0.9,0.57-1.79,0.87-2.69c5.31,2.27,10.62,4.53,15.93,6.8
				c-0.68,4.27-0.89,8.56-0.86,12.88c0.18,29.19-0.28,58.38,0.26,87.57c0.06,1.17-0.2,2.24-1.05,3.1c-3.05-0.01-6.1-0.02-9.15-0.03
				c-1.4-1.29-3.59-0.66-4.97-2.02C514.41,431.61,514.04,431.49,513.7,431.31z"/>
			<path class="st1" d="M551.41,312.8c-5.26,0.13-10.52,0.27-15.42-2.19c-1.91-2.54-1.8-5.52-1.8-8.46
				c-0.02-26.28-0.04-52.56,0.02-78.84c0.01-2.88-0.45-5.96,1.89-8.35c5.36,0.06,10.5,1.13,15.43,3.22c1.84,2.54,1.8,5.5,1.8,8.43
				c0.02,25.96,0.04,51.92-0.02,77.88C553.31,307.36,553.71,310.42,551.41,312.8z"/>
			<path class="st1" d="M536.11,214.96c-0.04,31.88-0.07,63.77-0.11,95.65c-5.7-1.13-10.5-4.12-15.24-7.27
				c-1.92-2.3-1.85-5.09-1.85-7.83c-0.03-24.3-0.07-48.61,0.04-72.91c0.01-3.38-0.67-7.39,4.15-8.57
				C527.47,213.84,531.86,213.34,536.11,214.96z"/>
			<path class="st1" d="M410.08,572.78c-5.5,0-10.99,0-16.49,0c-1.98-2.27-1.89-5.05-1.9-7.78c-0.04-23.06-0.04-46.12,0-69.18
				c0.01-2.72-0.16-5.53,1.89-7.77c5.76-1.68,11.67-2.58,17.61-3.34c1.01,1.81,0.79,3.8,0.79,5.74
				c-0.04,24.45,0.02,48.91-0.04,73.36C411.95,566.91,412.34,570.14,410.08,572.78z"/>
			<path class="st1" d="M529.16,431.57c-1.91-1.46-1.27-3.57-1.27-5.45c-0.03-30.15-0.03-60.3,0-90.45c0-2.2-0.83-4.96,2.69-5.53
				c3.82,0.8,7.64,1.6,11.46,2.4c1.63,1.93,1.82,4.27,1.83,6.63c0.11,28.9-0.05,57.81,0.09,86.71c0.01,1.18-0.35,2.31-0.48,3.48
				c-2.62,1.49-5.5,2-8.45,2.26C533.06,432.88,531.1,433.01,529.16,431.57z"/>
			<path class="st1" d="M551.41,312.8c0.04-31.54,0.08-63.08,0.12-94.62c5.16,1.64,10.62,2.56,14.87,6.33
				c0.87,3.24,1.02,6.54,1.02,9.88c-0.03,22.32,0.02,44.65-0.05,66.97c-0.01,3.85,0.5,7.37,3.24,10.28
				C564.28,313.19,557.89,313.68,551.41,312.8z"/>
			<path class="st1" d="M569.08,332.52c5.3-1.15,10.61-2.27,15.9-3.48c1.85-0.42,2.98-0.29,2.9,2.06
				c-0.55,17.14,1.54,34.39-1.5,51.4c-1.98,11.11-7.01,20.96-15.18,28.99c-2.54,1.02-3.01-0.9-3.51-2.58
				c-0.62-2.09-0.51-4.26-0.51-6.41c-0.02-20.34-0.03-40.68,0.01-61.02C567.19,338.39,566.88,335.18,569.08,332.52z"/>
			<path class="st1" d="M438.31,479.91c4.88-2.35,8.07-1.22,9.59,4.27c0.71,2.59,3.19,4.47,3.41,7.35
				c1.56,25.25,0.4,50.53,0.63,75.79c0.02,1.99-0.43,3.9-1.81,5.46c-4.71,0-9.42,0-14.13,0c-1.98-2.28-1.88-5.07-1.88-7.81
				c-0.04-25.48-0.06-50.96,0.02-76.43C434.15,485.1,433.66,481.21,438.31,479.91z"/>
			<path class="st1" d="M438.31,479.91c-2.94,1.76-2.31,4.66-2.31,7.34c-0.01,28.51-0.01,57.02-0.01,85.53c-4.71,0-9.42,0-14.13,0
				c-1.98-2.27-1.9-5.06-1.9-7.8c-0.04-24.67-0.04-49.35,0-74.02c0-2.74-0.03-5.52,1.9-7.81
				C427.17,481.22,432.76,480.64,438.31,479.91z"/>
			<path class="st1" d="M670.03,492.8c-2.79,1.68-1.99,4.45-1.99,6.89c-0.04,25.05-0.02,50.1-0.02,75.14
				c-4.85-2.59-10.21-1.37-15.32-2.05c-1.83-2.09-1.89-4.65-1.9-7.21c-0.05-23.09-0.15-46.17,0.11-69.26
				c0.03-2.85-1.63-7.81,4.55-7.29C660.56,489.36,665.71,489.47,670.03,492.8z"/>
			<path class="st1" d="M406.56,592.93c0,50.47,0,100.94,0,151.41c-2.46,0.4-2.31-1.35-2.44-2.92c-1.54-19.09-3.11-38.17-4.63-57.26
				c-2.17-27.27-4.17-54.56-6.52-81.81c-0.83-9.66-1.21-9.64,8.31-9.6C403.04,592.75,404.8,592.86,406.56,592.93z"/>
			<path class="st1" d="M543.48,429.36c-2.18-1.56-1.45-3.89-1.45-5.94c-0.03-30.29,0-60.58,0.01-90.87
				c6.25,0.11,12.49,0.23,18.74,0.34c-3.97,3.88-4.1,8.76-4.06,13.92c0.2,25.46-0.08,50.92,0.19,76.38
				C553.05,426.6,548.43,428.34,543.48,429.36z"/>
			<path class="st1" d="M556.91,423.19c-2.71-1.73-1.93-4.49-1.93-6.93c-0.04-25.03,0.15-50.07-0.17-75.1
				c-0.06-4.92,1.15-7.54,5.97-8.27c2.77-0.12,5.54-0.25,8.31-0.37c0,24.36-0.03,48.73,0.06,73.09c0.01,2.05-1.37,4.9,2.05,5.89
				C567.71,416.95,562.54,420.35,556.91,423.19z"/>
			<path class="st1" d="M655.47,489.03c-3.91,0.64-2.71,3.73-2.72,6.01c-0.07,25.91-0.04,51.83-0.04,77.74c-4.71,0-9.42,0-14.13,0
				c0-26.84,0.01-53.68-0.01-80.52c0-2.82-0.37-5.76,3.87-5.59C646.9,486.78,651.26,487.46,655.47,489.03z"/>
			<path class="st1" d="M570.6,311.64c-3,0.02-5.15-0.37-5.13-4.44c0.15-26.65,0.07-53.31,0.11-79.96c0-0.91,0.53-1.82,0.82-2.72
				c5.46,2.17,10.6,4.85,14.74,9.16c0.89,15.8,0.16,31.61,0.4,47.42c0.14,9.37-0.43,18.75,0.61,28.09
				C578.48,310.84,574.64,311.72,570.6,311.64z"/>
			<path class="st1" d="M393.6,488.05c0,28.24,0,56.49,0,84.73c-4.31,0.03-8.61,0.06-12.92,0.1c-2.85-1.9-3-4.91-3.02-7.83
				c-0.15-22.04-0.14-44.08-0.01-66.12c0.02-3.17,0.49-6.25,2.99-8.59C384.85,488.93,389.15,488.09,393.6,488.05z"/>
			<path class="st1" d="M582.15,309.18c-2.43-0.28-2.47-2.04-2.47-3.89c0.01-22.67,0.01-45.35,0.01-68.02c0-1.4,0.1-2.75,1.45-3.6
				c6.95,4.81,12.82,10.69,17.46,17.77c-1.08,14.92-0.38,29.86-0.59,44.79c-0.04,2.9,0.22,5.87-1.78,8.35
				C591.64,306.43,587.14,308.56,582.15,309.18z"/>
			<path class="st1" d="M509,298.41c-3.15-0.8-6.3-1.59-9.46-2.39c-1.86-1.05-4.09,0.2-5.93-0.93l0.02,0.06
				c-1.88-2.32-1.82-5.1-1.82-7.84c-0.04-19.97-0.03-39.93,0-59.9c0-2.74-0.04-5.52,1.87-7.82c5.18-2.63,10.77-3.74,16.47-4.41
				c-0.95,25.82-0.24,51.65-0.44,77.47C509.69,294.59,510,296.58,509,298.41z"/>
			<path class="st1" d="M509,298.41c-0.93-1.56-1.18-3.24-1.18-5.05c0.03-24.2,0.05-48.4-0.03-72.61c-0.01-2.32,0.39-4.2,2.35-5.57
				c4.27-0.95,8.56-1.67,12.96-1.15c-2.74,1.57-2.3,4.22-2.3,6.73c-0.01,27.53-0.02,55.05-0.03,82.58
				C516.84,301.7,512.92,300.05,509,298.41z"/>
			<path class="st1" d="M596.23,304.58c-0.02-15.23-0.02-30.47-0.06-45.7c-0.01-2.77-0.03-5.51,2.44-7.45
				c11.66,15.55,18.16,33.1,19.87,52.37c0.57,6.42,0.11,12.92,0.36,19.38c0.13,3.26-1.35,4.43-4.17,3.6
				c-2.61-0.77-7.35,2.63-7.45-3.48c-0.03-1.96,0.01-3.92-0.01-5.88C607.09,308.43,605.32,306.36,596.23,304.58z"/>
			<path class="st1" d="M683.3,677.58c-1.08,1.74-1.18,3.65-1.17,5.64c0.03,13.66,0.03,27.33,0,40.99
				c-0.01,2.63-0.27,5.33,3.66,5.07c-8.46,3.39-16.91,6.78-26.15,10.48c1.05-13.48,3.46-26.02,2.65-38.34
				C661.24,685.27,670.17,680.11,683.3,677.58z"/>
			<path class="st1" d="M596.11,493.76c1.45,2.29,1.25,4.86,1.24,7.4c-0.01,23.87-0.01,47.75-0.01,71.62c-5.1,0-10.21,0-15.31,0
				c-1.97-2.25-1.89-5.02-1.9-7.74c-0.04-15.74-0.03-31.49-0.01-47.23c0-2.74,0.11-5.46,1.78-7.82
				C586.64,504.58,591.38,499.17,596.11,493.76z"/>
			<path class="st1" d="M338.21,562.06c2.66,28.6,0.51,57.27,1.21,85.9c-5.14-1.84-10.27-3.69-15.41-5.53
				c-0.77-1.15-1.55-2.35-1.54-3.76c0.07-14.24-1.79-28.55,1.54-42.67C328.1,584.42,332.9,573.13,338.21,562.06z"/>
			<path class="st1" d="M421.86,483.16c0,29.88,0,59.75,0,89.63c-3.93,0-7.85,0-11.78,0c0-26.9,0-53.8,0.01-80.69
				c0-2.51-0.42-5.1,1.11-7.38C414.72,483.93,418.19,482.85,421.86,483.16z"/>
			<path class="st1" d="M464.1,236.93c4.88-4.78,10.25-8.86,16.6-11.53c2.22,2.16,1.93,5,1.94,7.68c0.07,18.1,0.05,36.19,0.02,54.29
				c-0.01,2.73,0.03,5.49-1.9,7.75c-5.09,0.82-10.17,1.64-15.26,2.46c-2.72-3.25-2.86-7.19-2.68-11.09
				c0.61-13.64,0.91-27.28,0.84-40.93C463.63,242.69,462.55,239.73,464.1,236.93z"/>
			<path class="st1" d="M464.1,236.93c2.68,9.98,1.21,20.17,1.21,30.25c-0.01,10.14-1.07,20.27,0.18,30.41
				c-5.49,1.97-10.98,3.94-16.47,5.91c-1.86-1.1-2.69-2.93-2.76-4.89c-0.44-13.01-0.94-26.03,0.26-39.03
				c0.14-1.52,0.42-3.09,1.3-4.44C452.22,248.14,457.32,241.79,464.1,236.93z"/>
			<path class="st1" d="M450.13,572.79c0-25.05-0.02-50.11,0.04-75.16c0-2.06-0.78-4.36,1.14-6.09c4.61,5.5,9.21,10.99,13.82,16.49
				c-0.85,18.58,0.14,37.18-0.24,55.76c-0.06,3.1,0.44,6.33-1.8,9C458.77,572.79,454.45,572.79,450.13,572.79z"/>
			<path class="st1" d="M364.16,657.37c0-48.69,0-97.38-0.01-146.07c0-2.72,0.39-5.5-1.17-7.99c0.52-3.55,3.37-5.24,5.78-7.29
				c3.06,1.47,3.09,4.38,3.08,7.08c-0.01,25.46,0.46,50.92-0.23,76.38c0.34,3.36,0.16,6.73,0.12,10.09
				c-0.89,9.71,0.26,19.41,0.16,29.11c-0.11,11.09,0.01,22.18-0.01,33.27c-0.01,2.67,0.36,5.52-1.84,7.71
				C367.9,659.36,365.91,658.66,364.16,657.37z"/>
			<path class="st1" d="M365.46,679.5c11.91,1.53,16.11,8.04,15.81,20.14c-0.32,12.99,1.87,26.03,3.01,39.65
				c-7.29-2.32-13.85-4.64-20.13-7.72c-1.85-2.06-1.86-4.62-1.87-7.15c-0.05-12.24-0.1-24.49,0.03-36.73
				C362.35,684.65,361.99,681.29,365.46,679.5z"/>
			<path class="st1" d="M480.75,295.12c-0.02-23.24-0.03-46.48-0.05-69.72c3.92-2.83,8.29-4.67,12.97-5.81
				c-0.01,25.19-0.03,50.37-0.04,75.56C489.33,295.14,485.04,295.13,480.75,295.12z"/>
			<path class="st1" d="M506.67,509.05c-6.01-1.2-11.46-3.68-16.48-7.16c-1.31-17.79-1.02-35.59-0.05-53.38
				c0.04-0.76,0.67-1.38,1.27-1.9c6.38,1.97,12.77,3.95,19.15,5.92c-1.76,3.8-2.11,7.81-2.08,11.95c0.09,12.08,0.08,24.17,0,36.26
				C508.45,503.59,508.99,506.66,506.67,509.05z"/>
			<path class="st1" d="M447.82,255.13c-0.02,13.45,0.04,26.9-0.1,40.35c-0.03,2.8,0.76,5.36,1.3,8.01
				c-7,3.78-7.64,10.18-7.28,17.14c0.1,1.95,1.28,5.03-1.21,5.74c-2.9,0.83-6.21,0.49-9.3,0.22c-1.28-0.11-1.01-1.88-1.08-3.01
				c-1.45-23.26,3.58-45.02,15.23-65.22C446.05,257.21,447,256.21,447.82,255.13z"/>
			<path class="st1" d="M522.2,453.73c4.24-0.27,8.49-0.54,12.73-0.82c2.03,2.01,1.86,4.64,1.87,7.15
				c0.08,14.44,0.06,28.88,0.02,43.32c-0.01,2.56-0.14,5.09-1.8,7.24c-4.67,1.6-9.45,1.08-14.22,0.79c-1.51-1.5-1.81-3.45-1.83-5.42
				c-0.14-15.65-0.22-31.3,0.07-46.94C519.08,456.92,518.78,454.08,522.2,453.73z"/>
			<path class="st1" d="M522.2,453.73c-2.13,1.61-1.37,3.94-1.37,5.99c-0.05,17.23-0.03,34.46-0.03,51.69
				c-4.89,0.3-9.58-0.65-14.13-2.36c0-16.65,0-33.29-0.01-49.94c0-2.99-0.36-6.13,3.9-6.58
				C514.44,452.87,518.42,452.35,522.2,453.73z"/>
			<path class="st1" d="M581.9,509.99c0.04,20.93,0.09,41.86,0.13,62.8c-4.71,0-9.42,0-14.13,0c-1.82-2.07-1.86-4.62-1.87-7.16
				c-0.05-12.82-0.04-25.64-0.01-38.46c0.01-2.57,0.28-5.05,1.89-7.19C572.57,516.65,577.24,513.32,581.9,509.99z"/>
			<path class="st1" d="M535.02,510.62c-0.03-19.24-0.06-38.47-0.09-57.71c4.32-0.84,8.64-1.68,12.96-2.51
				c3.43,2.45,2.88,6.18,2.98,9.62c0.4,15.23-0.7,30.48,0.71,45.69C546.48,508.77,540.85,510.03,535.02,510.62z"/>
			<path class="st1" d="M308.73,710.65c-17.47-4.37-23.47-20.48-18.47-33.8c4.76-12.68,19.83-18.5,28.22-14.8
				c-6.05,1.96-7.07,6.37-6.8,12.17c0.43,8.91,0.22,17.86,0.05,26.79C311.67,704.46,311.8,708.08,308.73,710.65z"/>
			<path class="st1" d="M371.22,579.79c-1.92-1.73-1.14-4.03-1.14-6.08c-0.05-23.44-0.04-46.88-0.02-70.32
				c0-2.55,0.13-5.09-1.3-7.38c3.22-3.45,7.17-5.37,11.89-5.67c-2.52,19.1-0.77,38.29-1.08,57.44c-0.13,8.35-1.25,16.83,1.11,25.1
				c-3.56,1.4-6.89,3.06-8.44,6.91C371.9,580.37,371.56,580.35,371.22,579.79z"/>
			<path class="st1" d="M551.58,505.72c-3.59-0.65-2.46-3.51-2.47-5.62c-0.08-13.49-0.09-26.99,0-40.48
				c0.02-3.16-0.29-6.21-1.21-9.22c4.45-1.76,8.9-3.52,14.04-5.55c-0.42,6.91,0.21,12.99,3.42,18.49
				c-0.89,11.33-0.47,22.67-0.12,34.01C561.46,501.41,556.77,503.97,551.58,505.72z"/>
			<path class="st1" d="M523.15,572.79c-6.28,0-12.56,0-18.84,0c-1.37-1.56-1.79-3.46-1.82-5.45c-0.12-10.36-0.29-20.72,0.1-31.07
				c0.12-3.32,0.63-6.95,5.64-6.04c4.98,0.48,9.95,0.96,14.93,1.44c1.5,1.5,1.78,3.43,1.81,5.39c0.15,10.11,0.15,20.22,0,30.32
				C524.94,569.35,524.51,571.24,523.15,572.79z"/>
			<path class="st1" d="M508.22,530.23c-3.78,0.31-3.95,2.94-3.94,5.87c0.05,12.23,0.02,24.46,0.02,36.69c-5.5,0-10.99,0-16.49,0
				c-1.53-1.74-1.8-3.87-1.82-6.05c-0.09-11.75-0.16-23.5,0.05-35.25c0.05-2.78-0.31-6.15,3.77-6.9
				C495.95,526.47,502.09,528.35,508.22,530.23z"/>
			<path class="st1" d="M336.92,721.31c-4.42-1.3-8.76-2.78-12.82-5c-1.69-1.91-1.86-4.26-1.87-6.63
				c-0.06-12.94-0.17-25.87,0.09-38.8c0.05-2.41-0.79-5.8,3.2-6.51c4.46,1.05,8.71,2.63,12.74,4.82c1.27,2.03,1.85,4.24,1.86,6.64
				c0.03,12.83,0.13,25.66-0.07,38.48C340.01,716.99,339.97,719.87,336.92,721.31z"/>
			<path class="st1" d="M523.15,572.79c0-13.71,0-27.42,0-41.13c5.88-0.48,11.75-0.96,17.63-1.44c1.78,1.63,1.85,3.83,1.88,5.98
				c0.13,10.18,0.12,20.37,0.01,30.55c-0.02,2.18-0.32,4.31-1.85,6.04C534.93,572.79,529.04,572.79,523.15,572.79z"/>
			<path class="st1" d="M325.52,664.36c-2.12,1.59-1.37,3.9-1.38,5.93c-0.06,15.34-0.03,30.67-0.03,46.01
				c-5.12-1.89-10.25-3.77-15.37-5.65c2.48-13.11,0.85-26.35,1.2-39.52c0.24-8.81,0.05-8.82,8.54-9.08
				C321.1,661.99,323.45,662.75,325.52,664.36z"/>
			<path class="st1" d="M463.08,572.79c0-16,0-31.99,0-47.99c0-4.59-1.34-9.15-0.06-13.78c0.38-1.37,0.34-2.72,2.1-2.99
				c3.28,2.65,6.56,5.3,9.84,7.94c1.43,2.66,1.84,5.51,1.83,8.5c-0.03,13.51,0.01,27.01-0.03,40.52c-0.01,2.73,0.09,5.53-1.9,7.8
				C470.94,572.79,467.01,572.79,463.08,572.79z"/>
			<path class="st1" d="M491.41,446.6c-0.02,15.57-0.08,31.13-0.02,46.7c0.01,2.95-0.29,5.79-1.2,8.58
				c-10.24-5.61-17.61-14.01-23.46-23.94c-1.69-2.87-1.48-4.31,2.05-5.36c11.99-3.56,19.04-11.15,18.68-24.27
				C487.35,444.25,488.94,444.54,491.41,446.6z"/>
			<path class="st1" d="M336.92,721.31c1.39-2.27,1.34-4.78,1.33-7.32c-0.02-14.94,0-29.87,0-44.81c5.24,1.74,10.64,3.05,15.46,5.87
				c-1.4,14.24-0.31,28.51-0.7,42.76c-0.08,3.05,0.63,6.32-1.82,8.92C346.44,724.92,341.68,723.12,336.92,721.31z"/>
			<path class="st1" d="M474.86,572.79c0.03-18.94,0.07-37.88,0.1-56.82c4.95,2.87,9.9,5.75,14.85,8.62
				c-2.54,1.49-1.98,3.99-1.99,6.26c-0.02,13.98-0.01,27.96-0.01,41.94C483.5,572.79,479.18,572.79,474.86,572.79z"/>
			<path class="st1" d="M351.2,726.73c0-15.37-0.04-30.74,0.04-46.11c0.01-2.1-1.1-4.95,2.48-5.58c3.91,1.49,8.18,2.04,11.74,4.45
				c-1.38,2.3-1.32,4.84-1.32,7.4c0.03,14.89,0.01,29.78,0.01,44.66C359.6,730.59,355.4,728.66,351.2,726.73z"/>
			<path class="st1" d="M567.91,519.98c0,17.6,0,35.2,0,52.8c-4.32,0-8.64,0-12.96,0c-1.37-1.57-1.76-3.48-1.79-5.47
				c-0.15-12.74-0.07-25.49-0.06-38.23c0-0.79,0.31-1.53,0.68-2.23C558.49,524.57,563.2,522.28,567.91,519.98z"/>
			<path class="st1" d="M553.78,526.86c1.32,2.1,1.18,4.45,1.18,6.79c-0.02,13.05-0.01,26.09-0.01,39.14c-4.71,0-9.42,0-14.13,0
				c-0.01-14.19-0.02-28.38-0.04-42.57C545.11,529.1,549.45,527.98,553.78,526.86z"/>
			<path class="st1" d="M607.16,360.01c0-2.53,0.25-5.1-0.05-7.59c-0.61-5.01,1.39-6.49,6.27-5.91c7.8,0.94,13.87,7.85,12.82,15.22
				c-1.13,8.01-8.6,13.51-16.41,12.36c-2.44-0.36-2.71-1.61-2.68-3.56c0.06-3.51,0.02-7.02,0.02-10.52
				C607.14,360.01,607.15,360.01,607.16,360.01z"/>
			<path class="st1" d="M324.01,596c0,15.47,0,30.95,0,46.42c-6-0.34-11.95-1.94-18.6,0.25c0.89-6,3.47-10.33,5.33-14.88
				C315.1,617.17,319.58,606.6,324.01,596z"/>
			<path class="st1" d="M441.82,360.33c0.01,2.14,0,4.29,0.01,6.43c0.04,7.52-1.44,8.69-8.78,6.93c-7.08-1.7-11.59-9.44-9.86-16.89
				c1.58-6.8,9.51-11.7,16.27-10.3c2.12,0.44,2.35,1.64,2.35,3.29C441.81,353.32,441.82,356.82,441.82,360.33z"/>
			<path class="st1" d="M565.23,497.35c-3-4.43-2.92-29.86,0.12-34.01c3.54,5.62,9.27,7.87,15.21,9.62
				c3.33,0.98,3.66,2.24,1.93,5.18C578.01,485.72,572.54,492.34,565.23,497.35z"/>
			<path class="st1" d="M370.05,659.65c0-21.03,0-42.05-0.01-63.08c0-2.52-0.26-5.08,1.18-7.37c0.32-0.52,0.65-0.54,0.96,0
				c0.1,2.64,0.21,5.28,0.32,7.93c1.17,2.74-0.21,5.74,0.88,8.48c0.09,2.3,0.18,4.6,0.27,6.9c1.16,2.3-0.12,4.9,0.88,7.22
				c0.11,2.68,0.21,5.35,0.32,8.03c1.13,2.32-0.15,4.94,0.88,7.27c0.09,2.31,0.18,4.61,0.27,6.92c1.25,2.69-0.21,5.68,0.92,8.38
				c0.09,2.29,0.18,4.57,0.28,6.86c0.66,1.64,0.8,3.27-0.07,4.89C374.5,662.03,372.2,661.05,370.05,659.65z"/>
			<path class="st1" d="M461.94,320.11c-0.04,16.44-0.09,32.87-0.13,49.31c-1.66-11.04-0.53-22.15-0.65-33.22
				C461.1,330.86,459.95,325.38,461.94,320.11z"/>
			<path class="st1" d="M529.16,431.57c1.96,0.02,3.91,0.04,5.87,0.06c-1.12,3.37-3.83,2.08-6.1,2.07
				C529,432.99,529.08,432.28,529.16,431.57z"/>
			<path class="st1" d="M372.18,589.21c-0.32,0-0.64,0-0.96,0c0-3.14,0-6.28,0-9.42c0.34,0,0.68,0,1.02,0
				C372.22,582.93,372.2,586.07,372.18,589.21z"/>
			<path class="st1" d="M514.8,431.65c1.96-0.06,4.21-0.87,4.97,2.02C517.76,433.87,515.55,434.56,514.8,431.65z"/>
			<path class="st1" d="M373.38,605.61c-1.91-2.66-0.65-5.64-0.88-8.48C374.02,599.83,373.42,602.75,373.38,605.61z"/>
			<path class="st1" d="M376.92,650.33c-1.93-2.62-0.64-5.58-0.92-8.38C377.48,644.62,376.94,647.5,376.92,650.33z"/>
			<path class="st1" d="M375.73,635.03c-1.8-2.24-0.69-4.83-0.88-7.27C376.25,630.05,375.79,632.56,375.73,635.03z"/>
			<path class="st1" d="M374.53,619.73c-1.77-2.22-0.67-4.8-0.88-7.21C375.04,614.78,374.59,617.28,374.53,619.73z"/>
			<path class="st1" d="M377.12,662.08c0.02-1.63,0.05-3.26,0.07-4.88c1.09,1.46,0.99,3.12,0.8,4.8c-0.02,0.13-0.25,0.33-0.39,0.34
				C377.45,662.35,377.29,662.17,377.12,662.08z"/>
			<path class="st1" d="M493.61,295.09c2,0.14,4.18-0.78,5.94,0.93C497.51,296.02,495.42,296.45,493.61,295.09z"/>
		</g>
		<g>
			<path class="st2" d="M685.61,513.9c18.57,42.17,35.73,84.91,53.56,128.41c-17.91-3.49-32.11,5.82-47.37,10.84
				c-2.03,0.67-4.08,1.3-6.12,1.95c-2.87,1.14-3.33-1.06-3.84-2.91c-0.53-1.9-0.43-3.89-0.43-5.85
				c-0.02-40.96-0.07-81.91,0.09-122.87C681.52,519.98,679.91,515.21,685.61,513.9z"/>
			<path class="st2" d="M683.3,677.58c13.5-5.17,26.83-10.86,40.56-15.36c12.39-4.06,25.6,3.09,30.04,15.02
				c4.52,12.18-0.64,25.98-12.74,31.05c-18.19,7.63-36.64,14.69-55.36,20.98c-3.94,1.62-4.92-0.93-5.3-3.94
				c-0.51-4.09-0.23-8.22-0.24-12.33c-0.02-9.21-0.07-18.42,0.03-27.63C680.33,682.45,680.26,679.39,683.3,677.58z"/>
			<path class="st2" d="M619.73,744.34c-5.5,0-10.99,0-16.49,0c-2.17-2.21-1.89-5.06-1.89-7.77c-0.05-45.29-0.05-90.58,0-135.87
				c0-2.71-0.27-5.56,1.89-7.77c5.5,0,10.99,0,16.49,0c2.16,2.22,1.89,5.07,1.89,7.77c0.05,45.29,0.05,90.58,0,135.87
				C621.62,739.27,621.89,742.12,619.73,744.34z"/>
			<path class="st2" d="M685.61,513.9c-2.44,1.16-2.29,3.37-2.29,5.55c0.01,43.7,0,87.4,0.02,131.09c0,1.87-0.56,4.13,2.35,4.55
				c-6.3,2.57-12.61,5.15-19.83,8.09c0.5-7.18,0.89-13.48,1.38-19.78c1.48-19.33,2.97-38.65,4.54-57.97
				c0.34-4.18-0.55-7.76-3.75-10.62c-1.79-2.33-1.88-5.06-1.88-7.81c-0.02-21.87-0.09-43.74,0.08-65.61
				c0.02-3.21-1.14-7.4,3.82-8.62C679.66,496.57,682.7,505.19,685.61,513.9z"/>
			<path class="st2" d="M478.4,744.34c-5.1,0-10.21,0-15.31,0c-2.17-2.21-1.89-5.06-1.89-7.77c-0.05-45.29-0.05-90.58,0-135.87
				c0-2.71-0.27-5.56,1.89-7.77c5.1,0,10.21,0,15.31,0c2.16,2.22,1.89,5.07,1.89,7.77c0.05,45.29,0.05,90.58,0,135.87
				C480.28,739.27,480.56,742.12,478.4,744.34z"/>
			<path class="st2" d="M506.66,744.34c-5.1,0-10.21,0-15.31,0c-2.17-2.21-1.89-5.06-1.89-7.77c-0.05-45.29-0.05-90.58,0-135.87
				c0-2.71-0.27-5.56,1.89-7.77c5.1,0,10.21,0,15.31,0c2.16,2.22,1.89,5.07,1.89,7.77c0.05,45.29,0.05,90.58,0,135.87
				C508.55,739.28,508.83,742.13,506.66,744.34z"/>
			<path class="st2" d="M547.89,592.93c5.1,0,10.21,0,15.31,0c2.16,2.22,1.89,5.07,1.89,7.77c0.05,45.29,0.05,90.58,0,135.87
				c0,2.71,0.28,5.56-1.89,7.77c-5.1,0-10.21,0-15.31,0c-2.17-2.21-1.89-5.06-1.89-7.77c-0.05-45.29-0.05-90.58,0-135.87
				C546,597.99,545.72,595.14,547.89,592.93z"/>
			<path class="st2" d="M563.2,744.34c0-50.47,0-100.94,0-151.41c4.71,0,9.42,0,14.13,0c2.16,2.22,1.89,5.07,1.89,7.77
				c0.05,45.29,0.05,90.58,0,135.87c0,2.71,0.28,5.56-1.89,7.77C572.62,744.34,567.91,744.34,563.2,744.34z"/>
			<path class="st2" d="M434.82,592.93c4.71,0,9.42,0,14.13,0c2.16,2.22,1.89,5.07,1.89,7.77c0.05,45.29,0.05,90.58,0,135.87
				c0,2.71,0.28,5.56-1.89,7.77c-4.71,0-9.42,0-14.13,0c-2.17-2.21-1.89-5.06-1.89-7.77c-0.05-45.29-0.05-90.58,0-135.87
				C432.93,597.99,432.66,595.14,434.82,592.93z"/>
			<ellipse class="st2" cx="456.02" cy="668.63" rx="10" ry="107.07"/>
			<path class="st2" d="M547.89,592.93c0,50.47,0,100.94,0,151.41c-4.71,0-9.42,0-14.13,0c-2.17-2.21-1.89-5.06-1.89-7.77
				c-0.05-45.29-0.05-90.58,0-135.87c0-2.71-0.27-5.56,1.89-7.77C538.47,592.93,543.18,592.93,547.89,592.93z"/>
			<path class="st2" d="M533.75,592.93c0,50.47,0,100.94,0,151.41c-4.71,0-9.42,0-14.13,0c-2.17-2.21-1.89-5.06-1.89-7.77
				c-0.05-45.29-0.05-90.58,0-135.87c0-2.71-0.27-5.56,1.89-7.77C524.33,592.93,529.04,592.93,533.75,592.93z"/>
			<path class="st2" d="M406.56,592.93c4.71,0,9.42,0,14.13,0c2.16,2.22,1.88,5.07,1.89,7.77c0.05,45.29,0.05,90.58,0,135.87
				c0,2.71,0.28,5.56-1.89,7.77c-4.71,0-9.42,0-14.13,0c-1.95-4.01-1.64-8.4-1.69-12.61c-0.46-43.48-0.18-86.97-0.21-130.45
				C404.66,598.39,404.26,595.33,406.56,592.93z"/>
			<ellipse class="st2" cx="427.76" cy="668.63" rx="9.99" ry="107.07"/>
			<path class="st2" d="M619.73,744.34c0-50.47,0-100.94,0-151.41c4.71,0,9.42,0,14.13,0c2.16,2.22,1.89,5.07,1.89,7.77
				c0.05,45.29,0.05,90.58,0,135.87c0,2.71,0.28,5.56-1.89,7.77C629.15,744.34,624.44,744.34,619.73,744.34z"/>
			<path class="st2" d="M596.11,493.76c2.71-4.66,4.38-11.32,8.42-13.39c3.77-1.93,10.05,0.98,15.21,1.82
				c0.93,0.15,1.81,0.6,2.71,0.92c-1.45,9.12-0.75,18.31-0.8,27.46c-0.1,17.76-0.01,35.51-0.05,53.27
				c-0.01,3.09,0.37,6.31-1.87,8.95c-7.46,0-14.92,0-22.38,0c-1.52-1.73-1.82-3.84-1.84-6.01c-0.12-22.6-0.07-45.2-0.01-67.8
				C595.5,497.23,596.02,495.52,596.11,493.76z"/>
			<ellipse class="st2" cx="484.88" cy="668.63" rx="9.16" ry="107.06"/>
			<path class="st2" d="M519.62,592.93c0,50.47,0,100.94,0,151.41c-4.32,0-8.64,0-12.96,0c0-50.47,0-100.94,0-151.41
				C510.98,592.93,515.3,592.93,519.62,592.93z"/>
			<path class="st2" d="M577.33,744.34c0-50.47,0-100.94,0-151.41c4.32,0,8.64,0,12.96,0c2.16,2.22,1.89,5.07,1.89,7.77
				c0.05,45.29,0.05,90.58,0,135.87c0,2.71,0.28,5.56-1.89,7.77C585.97,744.34,581.65,744.34,577.33,744.34z"/>
			<path class="st2" d="M590.29,744.34c0-50.47,0-100.94,0-151.41c4.32,0,8.64,0,12.96,0c0,50.47,0,100.94,0,151.41
				C598.92,744.34,594.6,744.34,590.29,744.34z"/>
			<path class="st2" d="M461.94,320.11c7.06-3.4,14.49-5.14,22.35-4.95c2.12,2.23,1.87,5.07,1.87,7.78
				c0.04,27.63,0.07,55.26-0.02,82.89c-0.01,3.68,0.22,7.55-3.02,10.34c-14.05-12.42-21.45-27.87-21.32-46.75
				C461.13,352.98,460.85,336.55,461.94,320.11z"/>
			<path class="st2" d="M633.86,744.34c0-50.47,0-100.94,0-151.41c3.52-0.07,7.04-0.18,10.57-0.19c7.57-0.03,7.41-0.02,6.78,7.77
				c-2.73,33.72-5.33,67.46-8.03,101.18c-1,12.48-2.4,24.92-3.07,37.42C639.86,743.88,638.33,745.43,633.86,744.34z"/>
			<path class="st2" d="M619.73,572.79c0-27.85-0.02-55.7,0.04-83.55c0.01-2.3-1.18-5.4,2.68-6.13c6.77,0.57,13.45,1.65,19.97,3.57
				c-1.68,3.42-2.01,7.06-2,10.83c0.05,22.1,0.05,44.2,0,66.31c-0.01,3.1,0.38,6.32-1.86,8.97
				C632.29,572.79,626.01,572.79,619.73,572.79z"/>
			<path class="st2" d="M483.12,416.18c1.49-5.56,1.17-11.24,1.17-16.9c0-28.04,0-56.08,0-84.12c6.04-0.37,12.08-0.67,17.72,2.18
				c-1.24,32.47-0.21,64.95-0.57,97.42c-0.05,4.07,0.46,8.26-1.84,12.01C493.24,424.59,487.82,420.94,483.12,416.18z"/>
			<path class="st2" d="M499.6,426.77c0-16.77,0-33.55,0-50.32c0-17.81-0.04-35.61,0.05-53.42c0.01-2.08-1.23-4.98,2.37-5.69
				c4.74,0.89,9.09,2.59,12.63,6c0.61,2.86,0.98,5.74,0.98,8.69c-0.04,29.69,0,59.38-0.05,89.08c-0.01,3.49,0.27,7.08-1.87,10.2
				C508.69,430.74,503.97,429.31,499.6,426.77z"/>
			<path class="st2" d="M338.21,562.06c4.09-11.32,8.69-22.43,13.98-33.25c2.92,1.83,3.14,4.86,3.15,7.78
				c0.21,38.13,0.08,76.27,0.09,114.4c0,0.99-0.24,1.94-0.73,2.81c-5.25-1.54-10.39-3.38-15.29-5.84c-1.44-1.54-1.81-3.46-1.82-5.45
				c-0.1-25.87-0.19-51.74,0.02-77.61C337.63,563.92,337.64,562.92,338.21,562.06z"/>
			<path class="st2" d="M354.71,653.8c-1.51-2.29-1.15-4.88-1.15-7.4c-0.01-35.75-0.03-71.49,0.03-107.24
				c0.01-3.55-0.21-7-1.39-10.36c2.92-8.79,6.51-17.29,10.78-25.51c3.87,2.23,3.03,6.09,3.04,9.47c0.1,26.04,0.05,52.08,0.05,78.12
				c0,19.19,0.04,38.37-0.03,57.56c-0.01,3.06,0.58,6.34-1.88,8.92C361.01,656.18,357.86,654.99,354.71,653.8z"/>
			<path class="st2" d="M513.7,431.31c0.01-35.09,0.02-70.18,0.07-105.28c0-0.9,0.57-1.79,0.87-2.69c5.31,2.27,10.62,4.53,15.93,6.8
				c-0.68,4.27-0.89,8.56-0.86,12.88c0.18,29.19-0.28,58.38,0.26,87.57c0.06,1.17-0.2,2.24-1.05,3.1c-3.05-0.01-6.1-0.02-9.15-0.03
				c-1.4-1.29-3.59-0.66-4.97-2.02C514.41,431.61,514.04,431.49,513.7,431.31z"/>
			<path class="st2" d="M551.41,312.8c-5.26,0.13-10.52,0.27-15.42-2.19c-1.91-2.54-1.8-5.52-1.8-8.46
				c-0.02-26.28-0.04-52.56,0.02-78.84c0.01-2.88-0.45-5.96,1.89-8.35c5.36,0.06,10.5,1.13,15.43,3.22c1.84,2.54,1.8,5.5,1.8,8.43
				c0.02,25.96,0.04,51.92-0.02,77.88C553.31,307.36,553.71,310.42,551.41,312.8z"/>
			<path class="st2" d="M536.11,214.96c-0.04,31.88-0.07,63.77-0.11,95.65c-5.7-1.13-10.5-4.12-15.24-7.27
				c-1.92-2.3-1.85-5.09-1.85-7.83c-0.03-24.3-0.07-48.61,0.04-72.91c0.01-3.38-0.67-7.39,4.15-8.57
				C527.47,213.84,531.86,213.34,536.11,214.96z"/>
			<path class="st2" d="M410.08,572.78c-5.5,0-10.99,0-16.49,0c-1.98-2.27-1.89-5.05-1.9-7.78c-0.04-23.06-0.04-46.12,0-69.18
				c0.01-2.72-0.16-5.53,1.89-7.77c5.76-1.68,11.67-2.58,17.61-3.34c1.01,1.81,0.79,3.8,0.79,5.74
				c-0.04,24.45,0.02,48.91-0.04,73.36C411.95,566.91,412.34,570.14,410.08,572.78z"/>
			<path class="st2" d="M529.16,431.57c-1.91-1.46-1.27-3.57-1.27-5.45c-0.03-30.15-0.03-60.3,0-90.45c0-2.2-0.83-4.96,2.69-5.53
				c3.82,0.8,7.64,1.6,11.46,2.4c1.63,1.93,1.82,4.27,1.83,6.63c0.11,28.9-0.05,57.81,0.09,86.71c0.01,1.18-0.35,2.31-0.48,3.48
				c-2.62,1.49-5.5,2-8.45,2.26C533.06,432.88,531.1,433.01,529.16,431.57z"/>
			<path class="st2" d="M551.41,312.8c0.04-31.54,0.08-63.08,0.12-94.62c5.16,1.64,10.62,2.56,14.87,6.33
				c0.87,3.24,1.02,6.54,1.02,9.88c-0.03,22.32,0.02,44.65-0.05,66.97c-0.01,3.85,0.5,7.37,3.24,10.28
				C564.28,313.19,557.89,313.68,551.41,312.8z"/>
			<path class="st2" d="M569.08,332.52c5.3-1.15,10.61-2.27,15.9-3.48c1.85-0.42,2.98-0.29,2.9,2.06
				c-0.55,17.14,1.54,34.39-1.5,51.4c-1.98,11.11-7.01,20.96-15.18,28.99c-2.54,1.02-3.01-0.9-3.51-2.58
				c-0.62-2.09-0.51-4.26-0.51-6.41c-0.02-20.34-0.03-40.68,0.01-61.02C567.19,338.39,566.88,335.18,569.08,332.52z"/>
			<path class="st2" d="M438.31,479.91c4.88-2.35,8.07-1.22,9.59,4.27c0.71,2.59,3.19,4.47,3.41,7.35
				c1.56,25.25,0.4,50.53,0.63,75.79c0.02,1.99-0.43,3.9-1.81,5.46c-4.71,0-9.42,0-14.13,0c-1.98-2.28-1.88-5.07-1.88-7.81
				c-0.04-25.48-0.06-50.96,0.02-76.43C434.15,485.1,433.66,481.21,438.31,479.91z"/>
			<path class="st2" d="M438.31,479.91c-2.94,1.76-2.31,4.66-2.31,7.34c-0.01,28.51-0.01,57.02-0.01,85.53c-4.71,0-9.42,0-14.13,0
				c-1.98-2.27-1.9-5.06-1.9-7.8c-0.04-24.67-0.04-49.35,0-74.02c0-2.74-0.03-5.52,1.9-7.81
				C427.17,481.22,432.76,480.64,438.31,479.91z"/>
			<path class="st2" d="M670.03,492.8c-2.79,1.68-1.99,4.45-1.99,6.89c-0.04,25.05-0.02,50.1-0.02,75.14
				c-4.85-2.59-10.21-1.37-15.32-2.05c-1.83-2.09-1.89-4.65-1.9-7.21c-0.05-23.09-0.15-46.17,0.11-69.26
				c0.03-2.85-1.63-7.81,4.55-7.29C660.56,489.36,665.71,489.47,670.03,492.8z"/>
			<path class="st2" d="M406.56,592.93c0,50.47,0,100.94,0,151.41c-2.46,0.4-2.31-1.35-2.44-2.92c-1.54-19.09-3.11-38.17-4.63-57.26
				c-2.17-27.27-4.17-54.56-6.52-81.81c-0.83-9.66-1.21-9.64,8.31-9.6C403.04,592.75,404.8,592.86,406.56,592.93z"/>
			<path class="st2" d="M543.48,429.36c-2.18-1.56-1.45-3.89-1.45-5.94c-0.03-30.29,0-60.58,0.01-90.87
				c6.25,0.11,12.49,0.23,18.74,0.34c-3.97,3.88-4.1,8.76-4.06,13.92c0.2,25.46-0.08,50.92,0.19,76.38
				C553.05,426.6,548.43,428.34,543.48,429.36z"/>
			<path class="st2" d="M556.91,423.19c-2.71-1.73-1.93-4.49-1.93-6.93c-0.04-25.03,0.15-50.07-0.17-75.1
				c-0.06-4.92,1.15-7.54,5.97-8.27c2.77-0.12,5.54-0.25,8.31-0.37c0,24.36-0.03,48.73,0.06,73.09c0.01,2.05-1.37,4.9,2.05,5.89
				C567.71,416.95,562.54,420.35,556.91,423.19z"/>
			<path class="st2" d="M655.47,489.03c-3.91,0.64-2.71,3.73-2.72,6.01c-0.07,25.91-0.04,51.83-0.04,77.74c-4.71,0-9.42,0-14.13,0
				c0-26.84,0.01-53.68-0.01-80.52c0-2.82-0.37-5.76,3.87-5.59C646.9,486.78,651.26,487.46,655.47,489.03z"/>
			<path class="st2" d="M570.6,311.64c-3,0.02-5.15-0.37-5.13-4.44c0.15-26.65,0.07-53.31,0.11-79.96c0-0.91,0.53-1.82,0.82-2.72
				c5.46,2.17,10.6,4.85,14.74,9.16c0.89,15.8,0.16,31.61,0.4,47.42c0.14,9.37-0.43,18.75,0.61,28.09
				C578.48,310.84,574.64,311.72,570.6,311.64z"/>
			<path class="st2" d="M393.6,488.05c0,28.24,0,56.49,0,84.73c-4.31,0.03-8.61,0.06-12.92,0.1c-2.85-1.9-3-4.91-3.02-7.83
				c-0.15-22.04-0.14-44.08-0.01-66.12c0.02-3.17,0.49-6.25,2.99-8.59C384.85,488.93,389.15,488.09,393.6,488.05z"/>
			<path class="st2" d="M582.15,309.18c-2.43-0.28-2.47-2.04-2.47-3.89c0.01-22.67,0.01-45.35,0.01-68.02c0-1.4,0.1-2.75,1.45-3.6
				c6.95,4.81,12.82,10.69,17.46,17.77c-1.08,14.92-0.38,29.86-0.59,44.79c-0.04,2.9,0.22,5.87-1.78,8.35
				C591.64,306.43,587.14,308.56,582.15,309.18z"/>
			<path class="st2" d="M509,298.41c-3.15-0.8-6.3-1.59-9.46-2.39c-1.86-1.05-4.09,0.2-5.93-0.93l0.02,0.06
				c-1.88-2.32-1.82-5.1-1.82-7.84c-0.04-19.97-0.03-39.93,0-59.9c0-2.74-0.04-5.52,1.87-7.82c5.18-2.63,10.77-3.74,16.47-4.41
				c-0.95,25.82-0.24,51.65-0.44,77.47C509.69,294.59,510,296.58,509,298.41z"/>
			<path class="st2" d="M509,298.41c-0.93-1.56-1.18-3.24-1.18-5.05c0.03-24.2,0.05-48.4-0.03-72.61c-0.01-2.32,0.39-4.2,2.35-5.57
				c4.27-0.95,8.56-1.67,12.96-1.15c-2.74,1.57-2.3,4.22-2.3,6.73c-0.01,27.53-0.02,55.05-0.03,82.58
				C516.84,301.7,512.92,300.05,509,298.41z"/>
			<path class="st2" d="M596.23,304.58c-0.02-15.23-0.02-30.47-0.06-45.7c-0.01-2.77-0.03-5.51,2.44-7.45
				c11.66,15.55,18.16,33.1,19.87,52.37c0.57,6.42,0.11,12.92,0.36,19.38c0.13,3.26-1.35,4.43-4.17,3.6
				c-2.61-0.77-7.35,2.63-7.45-3.48c-0.03-1.96,0.01-3.92-0.01-5.88C607.09,308.43,605.32,306.36,596.23,304.58z"/>
			<path class="st2" d="M683.3,677.58c-1.08,1.74-1.18,3.65-1.17,5.64c0.03,13.66,0.03,27.33,0,40.99
				c-0.01,2.63-0.27,5.33,3.66,5.07c-8.46,3.39-16.91,6.78-26.15,10.48c1.05-13.48,3.46-26.02,2.65-38.34
				C661.24,685.27,670.17,680.11,683.3,677.58z"/>
			<path class="st2" d="M596.11,493.76c1.45,2.29,1.25,4.86,1.24,7.4c-0.01,23.87-0.01,47.75-0.01,71.62c-5.1,0-10.21,0-15.31,0
				c-1.97-2.25-1.89-5.02-1.9-7.74c-0.04-15.74-0.03-31.49-0.01-47.23c0-2.74,0.11-5.46,1.78-7.82
				C586.64,504.58,591.38,499.17,596.11,493.76z"/>
			<path class="st2" d="M338.21,562.06c2.66,28.6,0.51,57.27,1.21,85.9c-5.14-1.84-10.27-3.69-15.41-5.53
				c-0.77-1.15-1.55-2.35-1.54-3.76c0.07-14.24-1.79-28.55,1.54-42.67C328.1,584.42,332.9,573.13,338.21,562.06z"/>
			<path class="st2" d="M421.86,483.16c0,29.88,0,59.75,0,89.63c-3.93,0-7.85,0-11.78,0c0-26.9,0-53.8,0.01-80.69
				c0-2.51-0.42-5.1,1.11-7.38C414.72,483.93,418.19,482.85,421.86,483.16z"/>
			<path class="st2" d="M464.1,236.93c4.88-4.78,10.25-8.86,16.6-11.53c2.22,2.16,1.93,5,1.94,7.68c0.07,18.1,0.05,36.19,0.02,54.29
				c-0.01,2.73,0.03,5.49-1.9,7.75c-5.09,0.82-10.17,1.64-15.26,2.46c-2.72-3.25-2.86-7.19-2.68-11.09
				c0.61-13.64,0.91-27.28,0.84-40.93C463.63,242.69,462.55,239.73,464.1,236.93z"/>
			<path class="st2" d="M464.1,236.93c2.68,9.98,1.21,20.17,1.21,30.25c-0.01,10.14-1.07,20.27,0.18,30.41
				c-5.49,1.97-10.98,3.94-16.47,5.91c-1.86-1.1-2.69-2.93-2.76-4.89c-0.44-13.01-0.94-26.03,0.26-39.03
				c0.14-1.52,0.42-3.09,1.3-4.44C452.22,248.14,457.32,241.79,464.1,236.93z"/>
			<path class="st2" d="M450.13,572.79c0-25.05-0.02-50.11,0.04-75.16c0-2.06-0.78-4.36,1.14-6.09c4.61,5.5,9.21,10.99,13.82,16.49
				c-0.85,18.58,0.14,37.18-0.24,55.76c-0.06,3.1,0.44,6.33-1.8,9C458.77,572.79,454.45,572.79,450.13,572.79z"/>
			<path class="st2" d="M364.16,657.37c0-48.69,0-97.38-0.01-146.07c0-2.72,0.39-5.5-1.17-7.99c0.52-3.55,3.37-5.24,5.78-7.29
				c3.06,1.47,3.09,4.38,3.08,7.08c-0.01,25.46,0.46,50.92-0.23,76.38c0.34,3.36,0.16,6.73,0.12,10.09
				c-0.89,9.71,0.26,19.41,0.16,29.11c-0.11,11.09,0.01,22.18-0.01,33.27c-0.01,2.67,0.36,5.52-1.84,7.71
				C367.9,659.36,365.91,658.66,364.16,657.37z"/>
			<path class="st2" d="M365.46,679.5c11.91,1.53,16.11,8.04,15.81,20.14c-0.32,12.99,1.87,26.03,3.01,39.65
				c-7.29-2.32-13.85-4.64-20.13-7.72c-1.85-2.06-1.86-4.62-1.87-7.15c-0.05-12.24-0.1-24.49,0.03-36.73
				C362.35,684.65,361.99,681.29,365.46,679.5z"/>
			<path class="st2" d="M480.75,295.12c-0.02-23.24-0.03-46.48-0.05-69.72c3.92-2.83,8.29-4.67,12.97-5.81
				c-0.01,25.19-0.03,50.37-0.04,75.56C489.33,295.14,485.04,295.13,480.75,295.12z"/>
			<path class="st2" d="M506.67,509.05c-6.01-1.2-11.46-3.68-16.48-7.16c-1.31-17.79-1.02-35.59-0.05-53.38
				c0.04-0.76,0.67-1.38,1.27-1.9c6.38,1.97,12.77,3.95,19.15,5.92c-1.76,3.8-2.11,7.81-2.08,11.95c0.09,12.08,0.08,24.17,0,36.26
				C508.45,503.59,508.99,506.66,506.67,509.05z"/>
			<path class="st2" d="M447.82,255.13c-0.02,13.45,0.04,26.9-0.1,40.35c-0.03,2.8,0.76,5.36,1.3,8.01
				c-7,3.78-7.64,10.18-7.28,17.14c0.1,1.95,1.28,5.03-1.21,5.74c-2.9,0.83-6.21,0.49-9.3,0.22c-1.28-0.11-1.01-1.88-1.08-3.01
				c-1.45-23.26,3.58-45.02,15.23-65.22C446.05,257.21,447,256.21,447.82,255.13z"/>
			<path class="st2" d="M522.2,453.73c4.24-0.27,8.49-0.54,12.73-0.82c2.03,2.01,1.86,4.64,1.87,7.15
				c0.08,14.44,0.06,28.88,0.02,43.32c-0.01,2.56-0.14,5.09-1.8,7.24c-4.67,1.6-9.45,1.08-14.22,0.79c-1.51-1.5-1.81-3.45-1.83-5.42
				c-0.14-15.65-0.22-31.3,0.07-46.94C519.08,456.92,518.78,454.08,522.2,453.73z"/>
			<path class="st2" d="M522.2,453.73c-2.13,1.61-1.37,3.94-1.37,5.99c-0.05,17.23-0.03,34.46-0.03,51.69
				c-4.89,0.3-9.58-0.65-14.13-2.36c0-16.65,0-33.29-0.01-49.94c0-2.99-0.36-6.13,3.9-6.58
				C514.44,452.87,518.42,452.35,522.2,453.73z"/>
			<path class="st2" d="M581.9,509.99c0.04,20.93,0.09,41.86,0.13,62.8c-4.71,0-9.42,0-14.13,0c-1.82-2.07-1.86-4.62-1.87-7.16
				c-0.05-12.82-0.04-25.64-0.01-38.46c0.01-2.57,0.28-5.05,1.89-7.19C572.57,516.65,577.24,513.32,581.9,509.99z"/>
			<path class="st2" d="M535.02,510.62c-0.03-19.24-0.06-38.47-0.09-57.71c4.32-0.84,8.64-1.68,12.96-2.51
				c3.43,2.45,2.88,6.18,2.98,9.62c0.4,15.23-0.7,30.48,0.71,45.69C546.48,508.77,540.85,510.03,535.02,510.62z"/>
			<path class="st2" d="M308.73,710.65c-17.47-4.37-23.47-20.48-18.47-33.8c4.76-12.68,19.83-18.5,28.22-14.8
				c-6.05,1.96-7.07,6.37-6.8,12.17c0.43,8.91,0.22,17.86,0.05,26.79C311.67,704.46,311.8,708.08,308.73,710.65z"/>
			<path class="st2" d="M371.22,579.79c-1.92-1.73-1.14-4.03-1.14-6.08c-0.05-23.44-0.04-46.88-0.02-70.32
				c0-2.55,0.13-5.09-1.3-7.38c3.22-3.45,7.17-5.37,11.89-5.67c-2.52,19.1-0.77,38.29-1.08,57.44c-0.13,8.35-1.25,16.83,1.11,25.1
				c-3.56,1.4-6.89,3.06-8.44,6.91C371.9,580.37,371.56,580.35,371.22,579.79z"/>
			<path class="st2" d="M551.58,505.72c-3.59-0.65-2.46-3.51-2.47-5.62c-0.08-13.49-0.09-26.99,0-40.48
				c0.02-3.16-0.29-6.21-1.21-9.22c4.45-1.76,8.9-3.52,14.04-5.55c-0.42,6.91,0.21,12.99,3.42,18.49
				c-0.89,11.33-0.47,22.67-0.12,34.01C561.46,501.41,556.77,503.97,551.58,505.72z"/>
			<path class="st2" d="M523.15,572.79c-6.28,0-12.56,0-18.84,0c-1.37-1.56-1.79-3.46-1.82-5.45c-0.12-10.36-0.29-20.72,0.1-31.07
				c0.12-3.32,0.63-6.95,5.64-6.04c4.98,0.48,9.95,0.96,14.93,1.44c1.5,1.5,1.78,3.43,1.81,5.39c0.15,10.11,0.15,20.22,0,30.32
				C524.94,569.35,524.51,571.24,523.15,572.79z"/>
			<path class="st2" d="M508.22,530.23c-3.78,0.31-3.95,2.94-3.94,5.87c0.05,12.23,0.02,24.46,0.02,36.69c-5.5,0-10.99,0-16.49,0
				c-1.53-1.74-1.8-3.87-1.82-6.05c-0.09-11.75-0.16-23.5,0.05-35.25c0.05-2.78-0.31-6.15,3.77-6.9
				C495.95,526.47,502.09,528.35,508.22,530.23z"/>
			<path class="st2" d="M336.92,721.31c-4.42-1.3-8.76-2.78-12.82-5c-1.69-1.91-1.86-4.26-1.87-6.63
				c-0.06-12.94-0.17-25.87,0.09-38.8c0.05-2.41-0.79-5.8,3.2-6.51c4.46,1.05,8.71,2.63,12.74,4.82c1.27,2.03,1.85,4.24,1.86,6.64
				c0.03,12.83,0.13,25.66-0.07,38.48C340.01,716.99,339.97,719.87,336.92,721.31z"/>
			<path class="st2" d="M523.15,572.79c0-13.71,0-27.42,0-41.13c5.88-0.48,11.75-0.96,17.63-1.44c1.78,1.63,1.85,3.83,1.88,5.98
				c0.13,10.18,0.12,20.37,0.01,30.55c-0.02,2.18-0.32,4.31-1.85,6.04C534.93,572.79,529.04,572.79,523.15,572.79z"/>
			<path class="st2" d="M325.52,664.36c-2.12,1.59-1.37,3.9-1.38,5.93c-0.06,15.34-0.03,30.67-0.03,46.01
				c-5.12-1.89-10.25-3.77-15.37-5.65c2.48-13.11,0.85-26.35,1.2-39.52c0.24-8.81,0.05-8.82,8.54-9.08
				C321.1,661.99,323.45,662.75,325.52,664.36z"/>
			<path class="st2" d="M463.08,572.79c0-16,0-31.99,0-47.99c0-4.59-1.34-9.15-0.06-13.78c0.38-1.37,0.34-2.72,2.1-2.99
				c3.28,2.65,6.56,5.3,9.84,7.94c1.43,2.66,1.84,5.51,1.83,8.5c-0.03,13.51,0.01,27.01-0.03,40.52c-0.01,2.73,0.09,5.53-1.9,7.8
				C470.94,572.79,467.01,572.79,463.08,572.79z"/>
			<path class="st2" d="M491.41,446.6c-0.02,15.57-0.08,31.13-0.02,46.7c0.01,2.95-0.29,5.79-1.2,8.58
				c-10.24-5.61-17.61-14.01-23.46-23.94c-1.69-2.87-1.48-4.31,2.05-5.36c11.99-3.56,19.04-11.15,18.68-24.27
				C487.35,444.25,488.94,444.54,491.41,446.6z"/>
			<path class="st2" d="M336.92,721.31c1.39-2.27,1.34-4.78,1.33-7.32c-0.02-14.94,0-29.87,0-44.81c5.24,1.74,10.64,3.05,15.46,5.87
				c-1.4,14.24-0.31,28.51-0.7,42.76c-0.08,3.05,0.63,6.32-1.82,8.92C346.44,724.92,341.68,723.12,336.92,721.31z"/>
			<path class="st2" d="M474.86,572.79c0.03-18.94,0.07-37.88,0.1-56.82c4.95,2.87,9.9,5.75,14.85,8.62
				c-2.54,1.49-1.98,3.99-1.99,6.26c-0.02,13.98-0.01,27.96-0.01,41.94C483.5,572.79,479.18,572.79,474.86,572.79z"/>
			<path class="st2" d="M351.2,726.73c0-15.37-0.04-30.74,0.04-46.11c0.01-2.1-1.1-4.95,2.48-5.58c3.91,1.49,8.18,2.04,11.74,4.45
				c-1.38,2.3-1.32,4.84-1.32,7.4c0.03,14.89,0.01,29.78,0.01,44.66C359.6,730.59,355.4,728.66,351.2,726.73z"/>
			<path class="st2" d="M567.91,519.98c0,17.6,0,35.2,0,52.8c-4.32,0-8.64,0-12.96,0c-1.37-1.57-1.76-3.48-1.79-5.47
				c-0.15-12.74-0.07-25.49-0.06-38.23c0-0.79,0.31-1.53,0.68-2.23C558.49,524.57,563.2,522.28,567.91,519.98z"/>
			<path class="st2" d="M553.78,526.86c1.32,2.1,1.18,4.45,1.18,6.79c-0.02,13.05-0.01,26.09-0.01,39.14c-4.71,0-9.42,0-14.13,0
				c-0.01-14.19-0.02-28.38-0.04-42.57C545.11,529.1,549.45,527.98,553.78,526.86z"/>
			<path class="st2" d="M607.16,360.01c0-2.53,0.25-5.1-0.05-7.59c-0.61-5.01,1.39-6.49,6.27-5.91c7.8,0.94,13.87,7.85,12.82,15.22
				c-1.13,8.01-8.6,13.51-16.41,12.36c-2.44-0.36-2.71-1.61-2.68-3.56c0.06-3.51,0.02-7.02,0.02-10.52
				C607.14,360.01,607.15,360.01,607.16,360.01z"/>
			<path class="st2" d="M324.01,596c0,15.47,0,30.95,0,46.42c-6-0.34-11.95-1.94-18.6,0.25c0.89-6,3.47-10.33,5.33-14.88
				C315.1,617.17,319.58,606.6,324.01,596z"/>
			<path class="st2" d="M441.82,360.33c0.01,2.14,0,4.29,0.01,6.43c0.04,7.52-1.44,8.69-8.78,6.93c-7.08-1.7-11.59-9.44-9.86-16.89
				c1.58-6.8,9.51-11.7,16.27-10.3c2.12,0.44,2.35,1.64,2.35,3.29C441.81,353.32,441.82,356.82,441.82,360.33z"/>
			<path class="st2" d="M565.23,497.35c-3-4.43-2.92-29.86,0.12-34.01c3.54,5.62,9.27,7.87,15.21,9.62
				c3.33,0.98,3.66,2.24,1.93,5.18C578.01,485.72,572.54,492.34,565.23,497.35z"/>
			<path class="st2" d="M370.05,659.65c0-21.03,0-42.05-0.01-63.08c0-2.52-0.26-5.08,1.18-7.37c0.32-0.52,0.65-0.54,0.96,0
				c0.1,2.64,0.21,5.28,0.32,7.93c1.17,2.74-0.21,5.74,0.88,8.48c0.09,2.3,0.18,4.6,0.27,6.9c1.16,2.3-0.12,4.9,0.88,7.22
				c0.11,2.68,0.21,5.35,0.32,8.03c1.13,2.32-0.15,4.94,0.88,7.27c0.09,2.31,0.18,4.61,0.27,6.92c1.25,2.69-0.21,5.68,0.92,8.38
				c0.09,2.29,0.18,4.57,0.28,6.86c0.66,1.64,0.8,3.27-0.07,4.89C374.5,662.03,372.2,661.05,370.05,659.65z"/>
			<path class="st2" d="M461.94,320.11c-0.04,16.44-0.09,32.87-0.13,49.31c-1.66-11.04-0.53-22.15-0.65-33.22
				C461.1,330.86,459.95,325.38,461.94,320.11z"/>
			<path class="st2" d="M529.16,431.57c1.96,0.02,3.91,0.04,5.87,0.06c-1.12,3.37-3.83,2.08-6.1,2.07
				C529,432.99,529.08,432.28,529.16,431.57z"/>
			<path class="st2" d="M372.18,589.21c-0.32,0-0.64,0-0.96,0c0-3.14,0-6.28,0-9.42c0.34,0,0.68,0,1.02,0
				C372.22,582.93,372.2,586.07,372.18,589.21z"/>
			<path class="st2" d="M514.8,431.65c1.96-0.06,4.21-0.87,4.97,2.02C517.76,433.87,515.55,434.56,514.8,431.65z"/>
			<path class="st2" d="M373.38,605.61c-1.91-2.66-0.65-5.64-0.88-8.48C374.02,599.83,373.42,602.75,373.38,605.61z"/>
			<path class="st2" d="M376.92,650.33c-1.93-2.62-0.64-5.58-0.92-8.38C377.48,644.62,376.94,647.5,376.92,650.33z"/>
			<path class="st2" d="M375.73,635.03c-1.8-2.24-0.69-4.83-0.88-7.27C376.25,630.05,375.79,632.56,375.73,635.03z"/>
			<path class="st2" d="M374.53,619.73c-1.77-2.22-0.67-4.8-0.88-7.21C375.04,614.78,374.59,617.28,374.53,619.73z"/>
			<path class="st2" d="M377.12,662.08c0.02-1.63,0.05-3.26,0.07-4.88c1.09,1.46,0.99,3.12,0.8,4.8c-0.02,0.13-0.25,0.33-0.39,0.34
				C377.45,662.35,377.29,662.17,377.12,662.08z"/>
			<path class="st2" d="M493.61,295.09c2,0.14,4.18-0.78,5.94,0.93C497.51,296.02,495.42,296.45,493.61,295.09z"/>
		</g>
	</g>
</g>
<g>
	<g>
		<g>
			<path class="st2" d="M885.36,878.34H748.66V741.65h136.69V878.34z M769.3,857.7h95.43v-95.43H769.3V857.7z"/>
		</g>
		<g>
			<rect x="792.51" y="785.49" class="st2" width="49" height="49"/>
		</g>
	</g>
	<g>
		<g>
			<path class="st2" d="M277.23,878.34H140.54V741.65h136.69V878.34z M161.17,857.7h95.43v-95.43h-95.43V857.7z"/>
		</g>
		<g>
			<rect x="184.39" y="785.49" class="st2" width="49" height="49"/>
		</g>
	</g>
	<g>
		<g>
			<path class="st2" d="M277.23,289.97H140.54V153.28h136.69V289.97z M161.17,269.33h95.43v-95.43h-95.43V269.33z"/>
		</g>
		<g>
			<rect x="184.39" y="197.12" class="st2" width="49" height="49"/>
		</g>
	</g>
</g>
<g>
	<g>
		<path class="st3" d="M87.46,344.63V173.24c0-54.33,44.04-98.37,98.37-98.37h171.39"/>
		<path class="st3" d="M934.51,344.63V173.24c0-54.33-44.04-98.37-98.37-98.37H664.75"/>
	</g>
	<g>
		<path class="st3" d="M934.51,679.13v171.39c0,54.33-44.04,98.37-98.37,98.37H664.75"/>
		<path class="st3" d="M87.46,679.13v171.39c0,54.33,44.04,98.37,98.37,98.37h171.39"/>
	</g>
</g>
<g>
	<g>
		<rect x="145.24" y="424.73" class="st2" width="45.32" height="45.32"/>
		<rect x="190.55" y="470.04" class="st2" width="45.32" height="45.32"/>
		<rect x="190.55" y="515.36" class="st2" width="45.32" height="45.32"/>
		<rect x="281.19" y="515.36" class="st2" width="45.32" height="45.32"/>
		<rect x="235.87" y="560.68" class="st2" width="45.32" height="45.32"/>
	</g>
	<g>
		<rect x="145.24" y="584.16" class="st2" width="45.32" height="45.32"/>
		<rect x="190.55" y="629.48" class="st2" width="45.32" height="45.32"/>
		<rect x="190.55" y="674.8" class="st2" width="45.32" height="45.32"/>
	</g>
	<g>
		<rect x="142.52" y="313.27" class="st2" width="45.32" height="45.32"/>
		<rect x="142.52" y="358.58" class="st2" width="45.32" height="45.32"/>
		<rect x="233.15" y="358.58" class="st2" width="45.32" height="45.32"/>
		<rect x="187.84" y="403.9" class="st2" width="45.32" height="45.32"/>
	</g>
	<g>
		
			<rect x="840.22" y="682.88" transform="matrix(-1 -1.224647e-16 1.224647e-16 -1 1725.7618 1411.078)" class="st2" width="45.32" height="45.32"/>
		
			<rect x="794.91" y="637.56" transform="matrix(-1 -1.224647e-16 1.224647e-16 -1 1635.13 1320.4452)" class="st2" width="45.32" height="45.32"/>
		
			<rect x="794.91" y="592.25" transform="matrix(-1 -1.224647e-16 1.224647e-16 -1 1635.13 1229.8124)" class="st2" width="45.32" height="45.32"/>
	</g>
	<g>
		
			<rect x="755.55" y="512.17" transform="matrix(6.123234e-17 -1 1 6.123234e-17 243.3778 1313.0365)" class="st2" width="45.32" height="45.32"/>
		
			<rect x="800.87" y="466.86" transform="matrix(6.123234e-17 -1 1 6.123234e-17 334.0101 1313.037)" class="st2" width="45.32" height="45.32"/>
		
			<rect x="846.18" y="466.86" transform="matrix(6.123234e-17 -1 1 6.123234e-17 379.3265 1358.3534)" class="st2" width="45.32" height="45.32"/>
		
			<rect x="846.18" y="376.22" transform="matrix(6.123234e-17 -1 1 6.123234e-17 469.9588 1267.7211)" class="st2" width="45.32" height="45.32"/>
	</g>
	<g>
		
			<rect x="783.23" y="282.61" transform="matrix(-1.836970e-16 1 -1 -1.836970e-16 1111.1469 -500.6197)" class="st2" width="45.32" height="45.32"/>
		
			<rect x="737.91" y="327.92" transform="matrix(-1.836970e-16 1 -1 -1.836970e-16 1111.1462 -409.9875)" class="st2" width="45.32" height="45.32"/>
		
			<rect x="692.59" y="327.92" transform="matrix(-1.836970e-16 1 -1 -1.836970e-16 1065.8298 -364.671)" class="st2" width="45.32" height="45.32"/>
		
			<rect x="693.31" y="422.64" transform="matrix(-1.836970e-16 1 -1 -1.836970e-16 1161.2657 -270.666)" class="st2" width="45.32" height="45.32"/>
	</g>
	<g>
		
			<rect x="263.62" y="405.27" transform="matrix(6.123234e-17 -1 1 6.123234e-17 -141.6481 714.2028)" class="st2" width="45.32" height="45.32"/>
		
			<rect x="308.94" y="359.95" transform="matrix(6.123234e-17 -1 1 6.123234e-17 -51.0158 714.2033)" class="st2" width="45.32" height="45.32"/>
		
			<rect x="354.25" y="359.95" transform="matrix(6.123234e-17 -1 1 6.123234e-17 -5.6994 759.5197)" class="st2" width="45.32" height="45.32"/>
		
			<rect x="354.25" y="269.32" transform="matrix(6.123234e-17 -1 1 6.123234e-17 84.9329 668.8875)" class="st2" width="45.32" height="45.32"/>
	</g>
	<g>
		
			<rect x="482.71" y="694.27" transform="matrix(6.123234e-17 -1 1 6.123234e-17 -211.5626 1222.2891)" class="st2" width="45.32" height="45.32"/>
		
			<rect x="528.02" y="648.95" transform="matrix(6.123234e-17 -1 1 6.123234e-17 -120.9297 1222.2891)" class="st2" width="45.32" height="45.32"/>
		
			<rect x="573.34" y="648.95" transform="matrix(6.123234e-17 -1 1 6.123234e-17 -75.6134 1267.6053)" class="st2" width="45.32" height="45.32"/>
		
			<rect x="392.07" y="784.9" transform="matrix(6.123234e-17 -1 1 6.123234e-17 -392.8271 1222.29)" class="st2" width="45.32" height="45.32"/>
		
			<rect x="437.39" y="830.22" transform="matrix(6.123234e-17 -1 1 6.123234e-17 -392.8277 1312.9224)" class="st2" width="45.32" height="45.32"/>
		
			<rect x="301.44" y="784.9" transform="matrix(6.123234e-17 -1 1 6.123234e-17 -483.46 1131.6572)" class="st2" width="45.32" height="45.32"/>
		
			<rect x="346.76" y="830.22" transform="matrix(6.123234e-17 -1 1 6.123234e-17 -483.46 1222.29)" class="st2" width="45.32" height="45.32"/>
	</g>
	<g>
		
			<rect x="526.92" y="784.9" transform="matrix(6.123234e-17 -1 1 6.123234e-17 -257.9817 1357.1356)" class="st2" width="45.32" height="45.32"/>
		
			<rect x="572.23" y="830.22" transform="matrix(6.123234e-17 -1 1 6.123234e-17 -257.9822 1447.7678)" class="st2" width="45.32" height="45.32"/>
		
			<rect x="436.29" y="784.9" transform="matrix(6.123234e-17 -1 1 6.123234e-17 -348.6145 1266.5027)" class="st2" width="45.32" height="45.32"/>
		
			<rect x="481.6" y="830.22" transform="matrix(6.123234e-17 -1 1 6.123234e-17 -348.6145 1357.1356)" class="st2" width="45.32" height="45.32"/>
	</g>
	<g>
		
			<rect x="390.7" y="152.45" transform="matrix(6.123234e-17 -1 1 6.123234e-17 238.249 588.463)" class="st2" width="45.32" height="45.32"/>
		
			<rect x="300.06" y="152.45" transform="matrix(6.123234e-17 -1 1 6.123234e-17 147.6162 497.8302)" class="st2" width="45.32" height="45.32"/>
		
			<rect x="345.38" y="197.77" transform="matrix(6.123234e-17 -1 1 6.123234e-17 147.6162 588.463)" class="st2" width="45.32" height="45.32"/>
	</g>
	<g>
		
			<rect x="800.87" y="422.67" transform="matrix(6.123234e-17 -1 1 6.123234e-17 378.193 1268.8544)" class="st2" width="45.32" height="45.32"/>
		
			<rect x="710.23" y="422.67" transform="matrix(6.123234e-17 -1 1 6.123234e-17 287.5601 1178.2216)" class="st2" width="45.32" height="45.32"/>
		
			<rect x="755.55" y="467.99" transform="matrix(6.123234e-17 -1 1 6.123234e-17 287.5601 1268.8544)" class="st2" width="45.32" height="45.32"/>
	</g>
	<g>
		<rect x="661.83" y="784.84" class="st2" width="45.32" height="45.32"/>
		<rect x="616.51" y="830.16" class="st2" width="45.32" height="45.32"/>
		<rect x="597.3" y="768.34" class="st2" width="45.32" height="45.32"/>
	</g>
	<g>
		
			<rect x="715.05" y="146.74" transform="matrix(1 2.092225e-03 -2.092225e-03 1 0.356 -1.5431)" class="st2" width="45.32" height="45.32"/>
		
			<rect x="801.97" y="192.15" transform="matrix(1 2.092225e-03 -2.092225e-03 1 0.4512 -1.7248)" class="st2" width="45.32" height="45.32"/>
		
			<rect x="760.17" y="237.47" transform="matrix(1 2.092225e-03 -2.092225e-03 1 0.5459 -1.6373)" class="st2" width="45.32" height="45.32"/>
		
			<rect x="850.8" y="237.65" transform="matrix(1 2.092225e-03 -2.092225e-03 1 0.5465 -1.8269)" class="st2" width="45.32" height="45.32"/>
		
			<rect x="805.39" y="282.88" transform="matrix(1 2.092225e-03 -2.092225e-03 1 0.6411 -1.7318)" class="st2" width="45.32" height="45.32"/>
	</g>
	<g>
		
			<rect x="760.3" y="146.88" transform="matrix(-1.836970e-16 1 -1 -1.836970e-16 952.497 -613.4211)" class="st2" width="45.32" height="45.32"/>
		
			<rect x="714.98" y="192.2" transform="matrix(-1.836970e-16 1 -1 -1.836970e-16 952.497 -522.7883)" class="st2" width="45.32" height="45.32"/>
		
			<rect x="669.67" y="192.2" transform="matrix(-1.836970e-16 1 -1 -1.836970e-16 907.1805 -477.4719)" class="st2" width="45.32" height="45.32"/>
	</g>
	
		<rect x="673.13" y="288.41" transform="matrix(-1 -1.224647e-16 1.224647e-16 -1 1391.5657 622.1364)" class="st2" width="45.32" height="45.32"/>
	
		<rect x="625.63" y="148.25" transform="matrix(-1 -1.224647e-16 1.224647e-16 -1 1296.5735 341.8143)" class="st2" width="45.32" height="45.32"/>
	
		<rect x="527.62" y="148.96" transform="matrix(-1 -1.224647e-16 1.224647e-16 -1 1100.5481 343.2452)" class="st2" width="45.32" height="45.32"/>
</g>
</svg>
