<svg xmlns="http://www.w3.org/2000/svg" xml:space="preserve" width="655.359" height="655.359" style="shape-rendering:geometricPrecision;text-rendering:geometricPrecision;image-rendering:optimizeQuality;fill-rule:evenodd;clip-rule:evenodd" viewBox="0 0 6.827 6.827"><defs><style>.fil10{fill:#202020}.fil6{fill:#2f2f2f}.fil12{fill:#a1a1a1}.fil3{fill:#a9a9a9}.fil9{fill:#b4b4b5}.fil4{fill:#bcbcbc}.fil11{fill:#c9c9c9}.fil5{fill:#d1d1d1}.fil7{fill:#f7f7f7}.fil2{fill:#fff}.fil1{fill:#2f2f2f;fill-rule:nonzero}</style></defs><g id="Layer_x0020_1"><path d="M3.513 1.566h2.264v1.898H3.513V1.566z" style="fill:#444"/><path class="fil1" d="M5.928 3.464a.053.053 0 0 0 0-.107H3.355a.053.053 0 0 0 0 .107h2.573zM5.928 1.587a.053.053 0 0 0 0-.107H3.355a.053.053 0 0 0 0 .107h2.573z"/><path class="fil2" d="M4.048 2.2h.333a.053.053 0 0 0 0-.107h-.333a.053.053 0 0 0 0 .107zM4.048 2.424h1.186a.053.053 0 0 0 0-.107H4.048a.053.053 0 0 0 0 .107zM4.048 2.637h1.186a.053.053 0 0 0 0-.107H4.048a.053.053 0 0 0 0 .107zM4.048 2.85h1.186a.053.053 0 0 0 0-.106H4.048a.053.053 0 0 0 0 .106z"/><path class="fil3" d="M2.189 1.92h.436c.222 0 .402.087.402.308v1.277h-1.24V2.228c0-.221.18-.308.402-.308z"/><path class="fil4" d="M2.252 1.656h.311v.397h-.311z"/><g id="_291566696"><path id="_291566840" class="fil4" d="M2.742 1.546s.164-.205.084-.25c0 0-.178.006-.084.25z"/><path id="_291567152" class="fil4" d="M2.073 1.546s-.165-.205-.085-.25c0 0 .179.006.085.25z"/></g><ellipse class="fil5" cx="2.407" cy="1.337" rx=".377" ry=".484"/><path class="fil6" d="M2.058 1.38s.095-.176.109-.232c0 0 .309.336.561.028l.014.238s.267-.533-.337-.56c0 0-.575.013-.347.526z"/><path class="fil7" d="m2.425 2.158.143.896-.16.24-.161-.24.143-.896.017-.001z"/><path class="fil7" d="m2.466 2.114-.059-.06-.059.06.06.062z"/><path class="fil5" d="M3.976 2.435a7.97 7.97 0 0 0 .036-.129l.218.054s.125.072.05.166c0 0-.007-.025-.068-.127l-.09-.017s-.038.048.057.066c0 0-.028.065-.183.005l-.02-.018z"/><path class="fil3" d="M2.46 2.267s.022-.105.095-.187c.077-.085.207-.147.27-.123l1.211.342-.05.172-.96-.223-.031.124-.535-.105z"/><path d="M2.718 1.93a.903.903 0 0 0-.126-.01h-.029l-.156.133-.156-.133h-.029a.903.903 0 0 0-.126.01l.175.263.136-.14.136.14.175-.262z" style="fill:#7b7b7b"/><path class="fil5" d="m1.673 3.41-.133-.012-.028.223s.023.143.138.106c0 0-.022-.015-.095-.11l.016-.089s.059-.019.042.077c0 0 .07-.004.07-.17l-.01-.025z"/><path class="fil3" d="M2.056 1.934s-.106-.017-.208.023c-.107.041-.21.14-.211.209l-.112 1.252.178.015.134-.977.126.015.093-.537z"/><g id="_291564272"><path id="_291565112" class="fil9" d="M1.551 5.227h.317v.349h-.317z"/><path id="_291565040" class="fil10" d="M2.501 5.916s-.01-.299-.283-.44a.638.638 0 0 0-.193-.062.92.92 0 0 0-.128-.01H1.52a.92.92 0 0 0-.127.01.638.638 0 0 0-.194.062c-.273.141-.283.44-.283.44l.7.011.093.002.094-.002.698-.011z"/><path id="_291565784" class="fil11" d="M1.71 4.329c.206 0 .374.223.374.498s-.168.498-.375.498-.375-.223-.375-.498.168-.498.375-.498z"/><path id="_291565256" class="fil6" d="M1.71 4.329c.212 0 .384.209.384.467s-.172.468-.385.468c-.212 0-.385-.21-.385-.468s.173-.467.385-.467z"/><path id="_291565760" class="fil12" d="M1.451 5.346h.515l.01.063h-.535z"/><path id="_291565352" class="fil9" d="M3.318 5.227h.317v.349h-.317z"/><path id="_291565736" class="fil10" d="M4.269 5.916s-.01-.299-.283-.44a.638.638 0 0 0-.193-.062.92.92 0 0 0-.128-.01h-.377a.92.92 0 0 0-.128.01.638.638 0 0 0-.193.062c-.273.141-.283.44-.283.44l.699.011.093.002.094-.002.699-.011z"/><path id="_291565064" class="fil11" d="M3.477 4.329c.207 0 .374.223.374.498s-.167.498-.374.498-.375-.223-.375-.498.168-.498.375-.498z"/><path id="_291565616" class="fil6" d="M3.477 4.329c.212 0 .384.209.384.467s-.172.468-.384.468c-.213 0-.385-.21-.385-.468s.172-.467.385-.467z"/><path id="_291564608" class="fil12" d="M3.219 5.346h.515l.01.063H3.21z"/><g><path id="_291564872" class="fil9" d="M5.086 5.227h.317v.349h-.317z"/><path id="_291564584" class="fil10" d="M6.036 5.916s-.01-.299-.283-.44a.638.638 0 0 0-.193-.062.92.92 0 0 0-.128-.01h-.377a.92.92 0 0 0-.127.01.638.638 0 0 0-.194.062c-.273.141-.283.44-.283.44l.7.011.093.002.094-.002.698-.011z"/><path id="_291564464" class="fil11" d="M5.244 4.329c.207 0 .375.223.375.498s-.168.498-.375.498-.375-.223-.375-.498.168-.498.375-.498z"/><path id="_291564488" class="fil6" d="M5.244 4.329c.213 0 .385.209.385.467s-.172.468-.385.468c-.212 0-.385-.21-.385-.468s.173-.467.385-.467z"/><path id="_291564992" class="fil12" d="M4.986 5.346h.515l.01.063h-.535z"/></g></g></g><path style="fill:none" d="M0 0h6.827v6.827H0z"/></svg>