<svg xmlns="http://www.w3.org/2000/svg" width="64" height="64" xml:space="preserve"><path fill="#DA4453" d="M39 8.002h5l-2 1.5 2 1.5h-7v-3z"/><path fill="#DA4453" d="M44.021 12h-7.02a1 1 0 0 1-1-1V8a1 1 0 0 1 1-1h7a1 1 0 0 1 .599 1.8l-.934.7.822.616A1 1 0 0 1 44.021 12zm-6.019-2h3.132a.996.996 0 0 1 0-1h-3.132v1z"/><path fill="#ED5565" d="M39 5.002v3h-7v-3z"/><path fill="#ED5565" d="M39.002 8.998h-7a1 1 0 0 1-1-1v-3a1 1 0 0 1 1-1h7a1 1 0 0 1 1 1v3a1 1 0 0 1-1 1zm-6-2h5v-1h-5v1z"/><path fill="#656D78" d="M32.002 14.998a1 1 0 0 1-1-1v-10a1 1 0 1 1 2 0v10a1 1 0 0 1-1 1z"/><path fill="#E6E9ED" d="M3 61.002a1 1 0 0 1-1-1V28.334a1 1 0 1 1 2 0v31.668a1 1 0 0 1-1 1zM61 60.002a1 1 0 0 1-1-1V28.006a1 1 0 1 1 2 0v30.996a1 1 0 0 1-1 1z"/><path fill="#DA4453" d="M1 28.998a1 1 0 0 1-.948-1.317l3-9a1 1 0 1 1 1.897.633l-3 9c-.14.419-.53.684-.949.684zM63 28.998a.999.999 0 0 1-.948-.684l-3-9a1 1 0 1 1 1.897-.633l3 9A1 1 0 0 1 63 28.998z"/><path fill="#DA4453" d="M27.359 19.998H4a1 1 0 1 1 0-2h23.359a1 1 0 1 1 0 2zM60 19.998H36.645a1 1 0 1 1 0-2H60a1 1 0 1 1 0 2z"/><path fill="#E6E9ED" d="M57.029 50.012v-4h-6v8h6v-4zm0-12.01v-4h-6v8h6v-4zm3.971 22H38V48.004l-6-2.002-6 2.002v11.998H3v-32h21.461v-.01L32 19.872l7.541 8.12H61V60.002zm-29-22c2.76 0 5-2.24 5-5s-2.24-5-5-5-5 2.24-5 5 2.24 5 5 5zm-19 12.01v-4H7v8h6v-4zm0-12.01v-4H7v8h6v-4zm3 12.01v4h6v-8h-6v4zm0-12.01v4h6v-8h-6v4zm32.029 16.01v-8h-6v8h6zm0-12.01v-8h-6v8h6z"/><path fill="#5D9CEC" d="M51.029 50.012h6v4h-6zM51.029 46.012h6v4h-6zM51.029 38.002h6v4h-6zM51.029 34.002h6v4h-6zM42.029 50.012h6v4h-6zM42.029 46.012h6v4h-6zM42.029 38.002h6v4h-6zM42.029 34.002h6v4h-6z"/><path fill="#DA4453" d="M36.641 19.002H60l3 8.99H44.99z"/><path fill="#ED5565" d="m36.641 19.002 8.349 8.99h-5.449L32 19.872l-7.539 8.12v.01H19l8.36-9 4.64-5z"/><circle fill="#FFF" cx="32" cy="33.002" r="5"/><path fill="#ED5565" d="M33 46.002h-6c-.55 0-1 .45-1 1v12c0 .55.45 1 1 1h10c.55 0 1-.45 1-1v-12c0-.55-.45-1-1-1h-4z"/><path fill="#5D9CEC" d="M16 50.012h6v4h-6zM16 46.012h6v4h-6zM16 38.002h6v4h-6zM16 34.002h6v4h-6zM7 50.012h6v4H7zM7 46.012h6v4H7zM7 38.002h6v4H7zM7 34.002h6v4H7z"/><path fill="#DA4453" d="M19 28.002H1l3-9h23.36z"/><path fill="#ED5565" d="M24.461 28.998H1a1 1 0 1 1 0-2h23.461a1 1 0 1 1 0 2z"/><path fill="#ED5565" d="M19.002 28.998a1 1 0 0 1-.733-1.681l13-14a1 1 0 0 1 1.465 1.361l-13 14a.99.99 0 0 1-.732.32z"/><path fill="#ED5565" d="M45.002 28.998a.993.993 0 0 1-.732-.319l-13-14a1 1 0 1 1 1.465-1.361l13 14a1 1 0 0 1-.733 1.68z"/><path fill="#D3374E" d="M57 21.997H44.43a1 1 0 1 1 0-2H57a1 1 0 1 1 0 2zM58 24.997H47.217a1 1 0 1 1 0-2H58a1 1 0 1 1 0 2zM19.574 21.997H7a1 1 0 1 1 0-2h12.574a1 1 0 1 1 0 2zM16.787 24.997H6a1 1 0 1 1 0-2h10.787a1 1 0 1 1 0 2z"/><path fill="#ED5565" d="M24.393 29.002h-5.391a1 1 0 1 1 0-2h5.391a1 1 0 1 1 0 2zM44.934 29.002h-5.391a1 1 0 1 1 0-2h5.391a1 1 0 1 1 0 2z"/><path fill="#ED5565" d="M24.461 28.996a1 1 0 0 1-.733-1.681l7.541-8.119a1 1 0 1 1 1.465 1.361l-7.541 8.119a.991.991 0 0 1-.732.32z"/><path fill="#ED5565" d="M39.543 28.996a.993.993 0 0 1-.732-.319l-7.541-8.119a1 1 0 1 1 1.465-1.361l7.541 8.119a1 1 0 0 1-.733 1.68z"/><path fill="#ED5565" d="M63 28.996H39.543a1 1 0 1 1 0-2H63a1 1 0 1 1 0 2z"/><path fill="#656D78" d="M32 39.002c-3.309 0-6-2.691-6-6s2.691-6 6-6 6 2.691 6 6-2.691 6-6 6zm0-10c-2.206 0-4 1.794-4 4s1.794 4 4 4 4-1.794 4-4-1.794-4-4-4z"/><path fill="#656D78" d="M32.002 34.002a1 1 0 0 1-1-1v-2a1 1 0 1 1 2 0v2a1 1 0 0 1-1 1z"/><path fill="#656D78" d="M33.41 35.418a1 1 0 0 1-.708-.293l-1.412-1.414a1.001 1.001 0 0 1 1.416-1.414l1.412 1.414a1.001 1.001 0 0 1-.708 1.707z"/><path fill="#CCD1D9" d="M36 43.002h-7.998a1 1 0 1 1 0-2H36a1 1 0 1 1 0 2z"/><path fill="#DA4453" d="M33 46.002h-1.998v14h2v-14H33z"/><path fill="#656D78" d="M63 61.002H1.002a1 1 0 1 1 0-2H63a1 1 0 1 1 0 2z"/><path fill="#FFF" d="M13 42.5H7a.5.5 0 0 1-.5-.5v-7.996a.5.5 0 0 1 .5-.5h6a.5.5 0 0 1 .5.5V42a.5.5 0 0 1-.5.5zm-5.5-1h5v-6.996h-5V41.5zM22 42.5h-6a.5.5 0 0 1-.5-.5v-7.996a.5.5 0 0 1 .5-.5h6a.5.5 0 0 1 .5.5V42a.5.5 0 0 1-.5.5zm-5.5-1h5v-6.996h-5V41.5zM13 54.512H7a.5.5 0 0 1-.5-.5v-7.996a.5.5 0 0 1 .5-.5h6a.5.5 0 0 1 .5.5v7.996a.5.5 0 0 1-.5.5zm-5.5-1h5v-6.996h-5v6.996zM22 54.512h-6a.5.5 0 0 1-.5-.5v-7.996a.5.5 0 0 1 .5-.5h6a.5.5 0 0 1 .5.5v7.996a.5.5 0 0 1-.5.5zm-5.5-1h5v-6.996h-5v6.996z"/><path fill="#FFF" d="M13.002 38.502h-6a.5.5 0 1 1 0-1h6a.5.5 0 0 1 0 1zM22.004 38.502h-6.006a.5.5 0 0 1 0-1h6.006a.5.5 0 0 1 0 1zM13.002 50.514h-6a.5.5 0 1 1 0-1h6a.5.5 0 0 1 0 1zM22.004 50.514h-6.006a.5.5 0 0 1 0-1h6.006a.5.5 0 0 1 0 1z"/><g><path fill="#FFF" d="M48 42.5h-6a.5.5 0 0 1-.5-.5v-7.996a.5.5 0 0 1 .5-.5h6a.5.5 0 0 1 .5.5V42a.5.5 0 0 1-.5.5zm-5.5-1h5v-6.996h-5V41.5zM57 42.5h-6a.5.5 0 0 1-.5-.5v-7.996a.5.5 0 0 1 .5-.5h6a.5.5 0 0 1 .5.5V42a.5.5 0 0 1-.5.5zm-5.5-1h5v-6.996h-5V41.5zM48 54.512h-6a.5.5 0 0 1-.5-.5v-7.996a.5.5 0 0 1 .5-.5h6a.5.5 0 0 1 .5.5v7.996a.5.5 0 0 1-.5.5zm-5.5-1h5v-6.996h-5v6.996zM57 54.512h-6a.5.5 0 0 1-.5-.5v-7.996a.5.5 0 0 1 .5-.5h6a.5.5 0 0 1 .5.5v7.996a.5.5 0 0 1-.5.5zm-5.5-1h5v-6.996h-5v6.996z"/><path fill="#FFF" d="M48.002 38.502h-6a.5.5 0 1 1 0-1h6a.5.5 0 0 1 0 1zM57.004 38.502h-6.006a.5.5 0 0 1 0-1h6.006a.5.5 0 0 1 0 1zM48.002 50.514h-6a.5.5 0 1 1 0-1h6a.5.5 0 0 1 0 1zM57.004 50.514h-6.006a.5.5 0 0 1 0-1h6.006a.5.5 0 0 1 0 1z"/></g></svg>