<svg xmlns="http://www.w3.org/2000/svg" width="64" height="64" xml:space="preserve"><path fill="#656D78" d="M39 55.504h24v4a2 2 0 0 1-2 2H3a2 2 0 0 1-2-2v-4h38z"/><path fill="#E6E9ED" d="M46 23.504v5a2 2 0 0 1-2 2H19.99c-1.11 0-2-.89-2-2v-5H5v32h54v-32H46z"/><path fill="#434A54" d="M5 22.494a2 2 0 0 1 2-2h10.99v3.01H5v-1.01z"/><path fill="#AAB2BD" d="M38 55.504c.55 0 1 .45 1 1v.99c0 .55-.45 1-1 1H26c-.55 0-1-.45-1-1v-.99c0-.55.45-1 1-1h12z"/><path fill="#656D78" d="m8.02 11.504-.03-.01 24.01-8 24 8-10.09 3.36L32 19.494l-13.92-4.64z"/><path fill="#434A54" d="M59 22.494v1.01H46v-3.01h11a2 2 0 0 1 2 2z"/><path fill="#545C66" d="M17.99 23.504V15.134l.09-.279L32 19.494l13.91-4.64.09.28V28.504a2 2 0 0 1-2 2H19.99c-1.11 0-2-.89-2-2v-5z"/><path fill="#AAB2BD" d="M25 55.504h14v1H25z"/><path fill="#545C66" d="M45.998 29.505a1 1 0 0 1-1-1V15.134a1 1 0 1 1 2 0v13.371a1 1 0 0 1-1 1z"/><path fill="#545C66" d="M43.998 31.505a1 1 0 1 1 0-2 1 1 0 0 0 1-1 1 1 0 1 1 2 0c0 1.654-1.346 3-3 3zM17.99 29.505a1 1 0 0 1-1-1V15.132a1 1 0 1 1 2 0v13.373a1 1 0 0 1-1 1z"/><path fill="#545C66" d="M19.99 31.505c-1.654 0-3-1.346-3-3a1 1 0 1 1 2 0 1 1 0 0 0 1 1 1 1 0 1 1 0 2z"/><path fill="#545C66" d="M43.998 31.505H19.99a1 1 0 1 1 0-2h24.008a1 1 0 1 1 0 2z"/><path d="M19.003 38.499H45v-1H19.003v1z"/><path fill="#CCD1D9" d="M46 44.503H18.003a1 1 0 1 1 0-2H46a1 1 0 1 1 0 2zM46 47.501H18.003a1 1 0 1 1 0-2H46a1 1 0 1 1 0 2z"/><g><path fill="#CCD1D9" d="M37 50.497h-9.997a1 1 0 1 1 0-2H37a1 1 0 1 1 0 2z"/></g><path fill="#434A54" d="M5 23.504h1.99v32H5zM57.002 23.504h1.99v32h-1.99z"/><g><path fill="#656D78" d="M31.996 20.497c-.106 0-.214-.018-.316-.052l-24.006-8a.998.998 0 0 1 0-1.896L31.68 2.547c.205-.068.428-.068.633 0l24.006 8.002a1 1 0 0 1 0 1.896l-24.006 8c-.103.034-.21.052-.317.052zm-20.843-9 20.843 6.946 20.843-6.946-20.843-6.948-20.843 6.948z"/></g><g><path fill="#FFCE54" d="M31.996 12.501H7.99a1 1 0 1 1 0-2h24.006a1 1 0 1 1 0 2z"/></g><g><path fill="#FFCE54" d="M7.99 17.501a1 1 0 0 1-1-1v-5a1 1 0 1 1 2 0v5a1 1 0 0 1-1 1z"/></g><g><path fill="#CCD1D9" d="M46.996 38.499c0 .55-.45 1-1 1H18.008c-.55 0-1-.45-1-1v-1c0-.55.45-1 1-1h27.988c.55 0 1 .45 1 1v1z"/><path fill="#5D9CEC" d="M18.008 36.499c-.55 0-1 .45-1 1v1c0 .55.45 1 1 1h15.489l-3-3H18.008z"/></g></svg>